<?xml version="1.0" encoding="UTF-8"?>
<svg version="1.1" xmlns="http://www.w3.org/2000/svg" width="338" height="337">
<path d="M0 0 C7.4338658 1.71474504 15.19838662 0.86462276 22.76171875 0.5234375 C47.37550249 -0.53315669 47.37550249 -0.53315669 55.32421875 2.9609375 C58.14637722 3.44585083 58.14637722 3.44585083 61.01171875 3.6484375 C61.96433594 3.73480469 62.91695312 3.82117188 63.8984375 3.91015625 C66.33512177 4.1495841 66.33512177 4.1495841 68.32421875 2.9609375 C70.53151105 2.89000908 72.74089327 2.87678725 74.94921875 2.8984375 C76.13773438 2.90746094 77.32625 2.91648437 78.55078125 2.92578125 C79.46601563 2.93738281 80.38125 2.94898438 81.32421875 2.9609375 C80.99421875 3.6209375 80.66421875 4.2809375 80.32421875 4.9609375 C77.8203125 5.375 77.8203125 5.375 74.76171875 5.5859375 C73.74980469 5.66070313 72.73789063 5.73546875 71.6953125 5.8125 C70.91285156 5.86148437 70.13039062 5.91046875 69.32421875 5.9609375 C70.62359375 6.1465625 71.92296875 6.3321875 73.26171875 6.5234375 C73.99261719 6.62785156 74.72351563 6.73226563 75.4765625 6.83984375 C76.08628906 6.87980469 76.69601563 6.91976563 77.32421875 6.9609375 C77.65421875 6.6309375 77.98421875 6.3009375 78.32421875 5.9609375 C80.17709377 5.88867248 82.03255753 5.8771253 83.88671875 5.8984375 C84.89863281 5.90746094 85.91054687 5.91648437 86.953125 5.92578125 C87.73558594 5.93738281 88.51804688 5.94898438 89.32421875 5.9609375 C89.32421875 6.6209375 89.32421875 7.2809375 89.32421875 7.9609375 C84.37421875 8.4559375 84.37421875 8.4559375 79.32421875 8.9609375 C84.39214498 11.00589019 88.86729192 12.51547409 94.32421875 12.9609375 C94.65421875 12.6309375 94.98421875 12.3009375 95.32421875 11.9609375 C97.65719308 11.92000813 99.991271 11.91852027 102.32421875 11.9609375 C102.65421875 12.6209375 102.98421875 13.2809375 103.32421875 13.9609375 C100.68421875 13.9609375 98.04421875 13.9609375 95.32421875 13.9609375 C95.65421875 14.6209375 95.98421875 15.2809375 96.32421875 15.9609375 C97.9903378 16.0036585 99.6580476 16.00157582 101.32421875 15.9609375 C101.65421875 15.6309375 101.98421875 15.3009375 102.32421875 14.9609375 C104.66366611 15.24823805 106.99813305 15.58030529 109.32421875 15.9609375 C109.32421875 16.2909375 109.32421875 16.6209375 109.32421875 16.9609375 C107.01421875 16.9609375 104.70421875 16.9609375 102.32421875 16.9609375 C102.65421875 17.6209375 102.98421875 18.2809375 103.32421875 18.9609375 C106.29421875 18.6309375 109.26421875 18.3009375 112.32421875 17.9609375 C112.65421875 18.6209375 112.98421875 19.2809375 113.32421875 19.9609375 C111.67421875 20.2909375 110.02421875 20.6209375 108.32421875 20.9609375 C110.65939034 21.71152837 111.98650761 22.05304054 114.38671875 21.3984375 C115.02609375 21.2540625 115.66546875 21.1096875 116.32421875 20.9609375 C117.31421875 21.6209375 118.30421875 22.2809375 119.32421875 22.9609375 C117.34421875 23.2909375 115.36421875 23.6209375 113.32421875 23.9609375 C113.32421875 24.6209375 113.32421875 25.2809375 113.32421875 25.9609375 C116.29421875 25.6309375 119.26421875 25.3009375 122.32421875 24.9609375 C122.32421875 25.6209375 122.32421875 26.2809375 122.32421875 26.9609375 C121.00421875 26.9609375 119.68421875 26.9609375 118.32421875 26.9609375 C118.32421875 27.6209375 118.32421875 28.2809375 118.32421875 28.9609375 C121.4123157 30.72556433 122.55734011 30.9609375 126.32421875 30.9609375 C127.99088542 30.9609375 129.65755208 30.9609375 131.32421875 30.9609375 C131.32421875 31.6209375 131.32421875 32.2809375 131.32421875 32.9609375 C130.00421875 33.6209375 128.68421875 34.2809375 127.32421875 34.9609375 C129.96421875 34.6309375 132.60421875 34.3009375 135.32421875 33.9609375 C135.32421875 34.6209375 135.32421875 35.2809375 135.32421875 35.9609375 C133.83921875 36.4559375 133.83921875 36.4559375 132.32421875 36.9609375 C131.66421875 36.6309375 131.00421875 36.3009375 130.32421875 35.9609375 C132.90206721 38.60845754 135.24069973 40.90525815 138.32421875 42.9609375 C138.32421875 43.6209375 138.32421875 44.2809375 138.32421875 44.9609375 C138.98421875 44.9609375 139.64421875 44.9609375 140.32421875 44.9609375 C140.65421875 44.3009375 140.98421875 43.6409375 141.32421875 42.9609375 C144.60221515 43.27231885 146.00488902 43.63419587 148.34375 46.02734375 C149.23126953 47.26291016 149.23126953 47.26291016 150.13671875 48.5234375 C150.74128906 49.34972656 151.34585937 50.17601562 151.96875 51.02734375 C152.41605469 51.66542969 152.86335938 52.30351563 153.32421875 52.9609375 C152.66421875 54.2809375 152.00421875 55.6009375 151.32421875 56.9609375 C151.98421875 57.2909375 152.64421875 57.6209375 153.32421875 57.9609375 C153.98421875 56.6409375 154.64421875 55.3209375 155.32421875 53.9609375 C155.65421875 55.6109375 155.98421875 57.2609375 156.32421875 58.9609375 C155.66421875 59.2909375 155.00421875 59.6209375 154.32421875 59.9609375 C156.99669509 62.30381168 156.99669509 62.30381168 160.32421875 62.9609375 C160.65421875 61.9709375 160.98421875 60.9809375 161.32421875 59.9609375 C161.98421875 61.6109375 162.64421875 63.2609375 163.32421875 64.9609375 C163.98421875 64.9609375 164.64421875 64.9609375 165.32421875 64.9609375 C165.44796875 65.6003125 165.57171875 66.2396875 165.69921875 66.8984375 C166.00859375 67.919375 166.00859375 67.919375 166.32421875 68.9609375 C166.98421875 69.2909375 167.64421875 69.6209375 168.32421875 69.9609375 C168.94921875 72.0234375 168.94921875 72.0234375 169.32421875 73.9609375 C169.98421875 73.9609375 170.64421875 73.9609375 171.32421875 73.9609375 C171.32421875 75.2809375 171.32421875 76.6009375 171.32421875 77.9609375 C172.64421875 78.2909375 173.96421875 78.6209375 175.32421875 78.9609375 C175.32421875 80.6109375 175.32421875 82.2609375 175.32421875 83.9609375 C176.31421875 83.9609375 177.30421875 83.9609375 178.32421875 83.9609375 C178.32421875 86.9309375 178.32421875 89.9009375 178.32421875 92.9609375 C178.98421875 91.6409375 179.64421875 90.3209375 180.32421875 88.9609375 C181.18165526 93.35529961 181.41370433 97.48665826 181.32421875 101.9609375 C181.98421875 99.6509375 182.64421875 97.3409375 183.32421875 94.9609375 C183.65421875 94.9609375 183.98421875 94.9609375 184.32421875 94.9609375 C184.32421875 99.5809375 184.32421875 104.2009375 184.32421875 108.9609375 C184.65421875 106.6509375 184.98421875 104.3409375 185.32421875 101.9609375 C185.98421875 101.9609375 186.64421875 101.9609375 187.32421875 101.9609375 C187.32421875 105.9609375 187.32421875 109.9609375 187.32421875 113.9609375 C187.65421875 111.9809375 187.98421875 110.0009375 188.32421875 107.9609375 C188.98421875 107.9609375 189.64421875 107.9609375 190.32421875 107.9609375 C190.35127604 109.73168667 190.3706407 111.50255461 190.38671875 113.2734375 C190.39832031 114.25957031 190.40992188 115.24570313 190.421875 116.26171875 C190.32421875 118.9609375 190.32421875 118.9609375 189.32421875 121.9609375 C189.7181921 124.59898339 189.7181921 124.59898339 190.32421875 126.9609375 C190.65421875 123.6609375 190.98421875 120.3609375 191.32421875 116.9609375 C191.98421875 116.9609375 192.64421875 116.9609375 193.32421875 116.9609375 C193.32421875 121.2509375 193.32421875 125.5409375 193.32421875 129.9609375 C192.66421875 129.9609375 192.00421875 129.9609375 191.32421875 129.9609375 C191.75408081 131.74371094 191.75408081 131.74371094 192.19262695 133.5625 C195.14732485 146.52395678 195.79588016 158.70942699 195.51171875 171.9609375 C195.4689946 174.78121396 195.43226307 177.60145754 195.40022278 180.421875 C195.37874689 182.15375381 195.35023456 183.88556466 195.31352234 185.6171875 C195.25245587 189.26630548 195.38344046 192.44746043 196.32421875 195.9609375 C196.40187959 197.40192181 196.43218242 198.84602379 196.421875 200.2890625 C196.41865234 201.08828125 196.41542969 201.8875 196.41210938 202.7109375 C196.40373047 203.5359375 196.39535156 204.3609375 196.38671875 205.2109375 C196.38220703 206.05140625 196.37769531 206.891875 196.37304688 207.7578125 C196.36129836 209.82555151 196.34336397 211.89325374 196.32421875 213.9609375 C195.66421875 213.9609375 195.00421875 213.9609375 194.32421875 213.9609375 C193.99421875 209.3409375 193.66421875 204.7209375 193.32421875 199.9609375 C193.13859375 201.5903125 192.95296875 203.2196875 192.76171875 204.8984375 C192.65730469 205.81496094 192.55289062 206.73148438 192.4453125 207.67578125 C192.40535156 208.42988281 192.36539062 209.18398437 192.32421875 209.9609375 C192.65421875 210.2909375 192.98421875 210.6209375 193.32421875 210.9609375 C193.39665928 212.98057949 193.40799063 215.00260874 193.38671875 217.0234375 C193.37769531 218.12816406 193.36867188 219.23289063 193.359375 220.37109375 C193.34197266 221.65306641 193.34197266 221.65306641 193.32421875 222.9609375 C192.66421875 222.9609375 192.00421875 222.9609375 191.32421875 222.9609375 C190.99421875 220.9809375 190.66421875 219.0009375 190.32421875 216.9609375 C189.99421875 217.6209375 189.66421875 218.2809375 189.32421875 218.9609375 C189.65421875 219.9509375 189.98421875 220.9409375 190.32421875 221.9609375 C190.39224842 223.68889102 190.4091752 225.41929115 190.38671875 227.1484375 C190.37769531 228.04949219 190.36867188 228.95054687 190.359375 229.87890625 C190.34197266 230.90951172 190.34197266 230.90951172 190.32421875 231.9609375 C189.66421875 231.9609375 189.00421875 231.9609375 188.32421875 231.9609375 C187.99421875 229.6509375 187.66421875 227.3409375 187.32421875 224.9609375 C187.32421875 229.2509375 187.32421875 233.5409375 187.32421875 237.9609375 C186.66421875 237.9609375 186.00421875 237.9609375 185.32421875 237.9609375 C184.99421875 236.9709375 184.66421875 235.9809375 184.32421875 234.9609375 C184.32421875 238.2609375 184.32421875 241.5609375 184.32421875 244.9609375 C183.66421875 245.2909375 183.00421875 245.6209375 182.32421875 245.9609375 C181.99421875 244.6409375 181.66421875 243.3209375 181.32421875 241.9609375 C181.32421875 242.9509375 181.32421875 243.9409375 181.32421875 244.9609375 C181.32421875 247.29427083 181.32421875 249.62760417 181.32421875 251.9609375 C180.66421875 251.9609375 180.00421875 251.9609375 179.32421875 251.9609375 C178.99421875 249.9809375 178.66421875 248.0009375 178.32421875 245.9609375 C177.73351861 247.90697024 177.73351861 247.90697024 177.32421875 249.9609375 C177.65421875 250.2909375 177.98421875 250.6209375 178.32421875 250.9609375 C178.36485707 252.62710865 178.36693975 254.29481845 178.32421875 255.9609375 C177.66421875 256.2909375 177.00421875 256.6209375 176.32421875 256.9609375 C175.99421875 256.3009375 175.66421875 255.6409375 175.32421875 254.9609375 C175.32421875 257.2709375 175.32421875 259.5809375 175.32421875 261.9609375 C174.00421875 261.9609375 172.68421875 261.9609375 171.32421875 261.9609375 C171.32421875 263.6109375 171.32421875 265.2609375 171.32421875 266.9609375 C170.66421875 267.2909375 170.00421875 267.6209375 169.32421875 267.9609375 C168.99421875 266.3109375 168.66421875 264.6609375 168.32421875 262.9609375 C168.32421875 263.9509375 168.32421875 264.9409375 168.32421875 265.9609375 C168.32421875 267.62760417 168.32421875 269.29427083 168.32421875 270.9609375 C167.33421875 270.9609375 166.34421875 270.9609375 165.32421875 270.9609375 C165.32421875 272.2809375 165.32421875 273.6009375 165.32421875 274.9609375 C164.45796875 274.5896875 164.45796875 274.5896875 163.57421875 274.2109375 C162.83171875 274.1284375 162.08921875 274.0459375 161.32421875 273.9609375 C159.05277801 275.81525837 159.05277801 275.81525837 157.32421875 277.9609375 C157.98421875 277.9609375 158.64421875 277.9609375 159.32421875 277.9609375 C159.32421875 279.6109375 159.32421875 281.2609375 159.32421875 282.9609375 C158.66421875 283.2909375 158.00421875 283.6209375 157.32421875 283.9609375 C156.66421875 284.9509375 156.00421875 285.9409375 155.32421875 286.9609375 C154.33421875 286.9609375 153.34421875 286.9609375 152.32421875 286.9609375 C152.32421875 287.9509375 152.32421875 288.9409375 152.32421875 289.9609375 C150.01171875 291.9609375 150.01171875 291.9609375 147.32421875 293.9609375 C146.51984375 294.8271875 146.51984375 294.8271875 145.69921875 295.7109375 C144.32421875 296.9609375 144.32421875 296.9609375 141.32421875 296.9609375 C141.32421875 296.3009375 141.32421875 295.6409375 141.32421875 294.9609375 C140.33421875 294.9609375 139.34421875 294.9609375 138.32421875 294.9609375 C137.99421875 295.9509375 137.66421875 296.9409375 137.32421875 297.9609375 C135.546875 299.78515625 135.546875 299.78515625 133.38671875 301.6484375 C132.32130859 302.58236328 132.32130859 302.58236328 131.234375 303.53515625 C129.32421875 304.9609375 129.32421875 304.9609375 127.32421875 304.9609375 C127.32421875 305.6209375 127.32421875 306.2809375 127.32421875 306.9609375 C128.64421875 306.9609375 129.96421875 306.9609375 131.32421875 306.9609375 C131.32421875 307.6209375 131.32421875 308.2809375 131.32421875 308.9609375 C129.74640625 308.5896875 129.74640625 308.5896875 128.13671875 308.2109375 C124.27055626 307.5719533 124.27055626 307.5719533 121.38671875 309.8984375 C120.70609375 310.5790625 120.02546875 311.2596875 119.32421875 311.9609375 C120.64421875 312.2909375 121.96421875 312.6209375 123.32421875 312.9609375 C122.99421875 313.9509375 122.66421875 314.9409375 122.32421875 315.9609375 C119.68421875 315.3009375 117.04421875 314.6409375 114.32421875 313.9609375 C114.32421875 314.6209375 114.32421875 315.2809375 114.32421875 315.9609375 C115.97421875 316.2909375 117.62421875 316.6209375 119.32421875 316.9609375 C115.47390825 319.52781117 113.73852112 318.79382474 109.32421875 317.9609375 C109.32421875 318.2909375 109.32421875 318.6209375 109.32421875 318.9609375 C110.97421875 319.2909375 112.62421875 319.6209375 114.32421875 319.9609375 C113.99421875 320.6209375 113.66421875 321.2809375 113.32421875 321.9609375 C109.83187631 322.06071871 106.72984727 321.73936688 103.32421875 320.9609375 C102.99421875 321.6209375 102.66421875 322.2809375 102.32421875 322.9609375 C104.63421875 322.9609375 106.94421875 322.9609375 109.32421875 322.9609375 C108.66421875 323.6209375 108.00421875 324.2809375 107.32421875 324.9609375 C105.23046875 324.90234375 105.23046875 324.90234375 102.82421875 324.5234375 C99.45618945 323.89818802 99.45618945 323.89818802 96.32421875 324.9609375 C98.96421875 325.2909375 101.60421875 325.6209375 104.32421875 325.9609375 C103.99421875 326.6209375 103.66421875 327.2809375 103.32421875 327.9609375 C99.13501108 328.04307883 95.41802056 327.77969786 91.32421875 326.9609375 C90.66421875 327.2909375 90.00421875 327.6209375 89.32421875 327.9609375 C92.29421875 328.2909375 95.26421875 328.6209375 98.32421875 328.9609375 C97.99421875 329.6209375 97.66421875 330.2809375 97.32421875 330.9609375 C89.93639266 331.08615489 89.93639266 331.08615489 86.57421875 330.3984375 C84.02028518 329.7371206 84.02028518 329.7371206 80.32421875 330.9609375 C83.62421875 331.2909375 86.92421875 331.6209375 90.32421875 331.9609375 C90.32421875 332.6209375 90.32421875 333.2809375 90.32421875 333.9609375 C88.74098187 333.9881305 87.15760813 334.00742056 85.57421875 334.0234375 C84.6925 334.03503906 83.81078125 334.04664063 82.90234375 334.05859375 C80.32421875 333.9609375 80.32421875 333.9609375 78.37109375 333.33203125 C76.19218811 332.75873762 76.19218811 332.75873762 73.70414734 333.920578 C69.80462075 335.12087245 66.23413474 335.24915674 62.19848633 335.2355957 C61.00935638 335.2432621 61.00935638 335.2432621 59.79620361 335.25108337 C57.18697459 335.26493146 54.57801131 335.26402552 51.96875 335.26171875 C50.14279585 335.26560971 48.3168426 335.2699452 46.4908905 335.27470398 C42.66536526 335.28215697 38.83993231 335.28188262 35.0144043 335.27661133 C30.13690777 335.27083302 25.25979301 335.28771244 20.3823595 335.310956 C16.60999886 335.32576779 12.83772843 335.3265547 9.06534386 335.32344627 C7.26859471 335.32395625 5.47184008 335.32913252 3.6751194 335.33925819 C-5.86404735 335.38640268 -14.59902515 335.31247333 -23.67578125 331.9609375 C-28.66451052 330.11833718 -28.66451052 330.11833718 -33.67578125 330.9609375 C-36.34881203 331.05898303 -38.99969316 331.00553897 -41.67578125 330.9609375 C-42.00578125 330.3009375 -42.33578125 329.6409375 -42.67578125 328.9609375 C-39.70578125 328.6309375 -36.73578125 328.3009375 -33.67578125 327.9609375 C-35.66718685 327.57960451 -37.66857202 327.24768168 -39.67578125 326.9609375 C-40.00578125 327.2909375 -40.33578125 327.6209375 -40.67578125 327.9609375 C-43.00875558 328.00186687 -45.3428335 328.00335473 -47.67578125 327.9609375 C-48.00578125 327.3009375 -48.33578125 326.6409375 -48.67578125 325.9609375 C-46.03578125 325.9609375 -43.39578125 325.9609375 -40.67578125 325.9609375 C-40.67578125 325.3009375 -40.67578125 324.6409375 -40.67578125 323.9609375 C-42.67532871 323.91839394 -44.67619761 323.92012967 -46.67578125 323.9609375 C-47.00578125 324.2909375 -47.33578125 324.6209375 -47.67578125 324.9609375 C-49.3419524 325.00157582 -51.0096622 325.0036585 -52.67578125 324.9609375 C-53.00578125 324.3009375 -53.33578125 323.6409375 -53.67578125 322.9609375 C-52.02578125 322.6309375 -50.37578125 322.3009375 -48.67578125 321.9609375 C-51.24191851 321.10555841 -52.61060661 320.94697151 -55.30078125 321.5234375 C-56.08453125 321.6678125 -56.86828125 321.8121875 -57.67578125 321.9609375 C-58.33578125 321.3009375 -58.99578125 320.6409375 -59.67578125 319.9609375 C-58.87140625 319.8371875 -58.06703125 319.7134375 -57.23828125 319.5859375 C-56.39265625 319.3796875 -55.54703125 319.1734375 -54.67578125 318.9609375 C-54.34578125 318.3009375 -54.01578125 317.6409375 -53.67578125 316.9609375 C-54.93390625 317.3321875 -56.19203125 317.7034375 -57.48828125 318.0859375 C-59.6328125 318.71875 -59.6328125 318.71875 -61.67578125 318.9609375 C-62.66578125 318.3009375 -63.65578125 317.6409375 -64.67578125 316.9609375 C-62.69578125 316.6309375 -60.71578125 316.3009375 -58.67578125 315.9609375 C-58.67578125 315.3009375 -58.67578125 314.6409375 -58.67578125 313.9609375 C-61.97578125 314.2909375 -65.27578125 314.6209375 -68.67578125 314.9609375 C-68.34578125 314.3009375 -68.01578125 313.6409375 -67.67578125 312.9609375 C-66.35578125 312.9609375 -65.03578125 312.9609375 -63.67578125 312.9609375 C-63.67578125 312.3009375 -63.67578125 311.6409375 -63.67578125 310.9609375 C-64.31515625 310.8371875 -64.95453125 310.7134375 -65.61328125 310.5859375 C-66.63421875 310.2765625 -66.63421875 310.2765625 -67.67578125 309.9609375 C-68.00578125 309.3009375 -68.33578125 308.6409375 -68.67578125 307.9609375 C-71.31578125 308.2909375 -73.95578125 308.6209375 -76.67578125 308.9609375 C-76.67578125 308.3009375 -76.67578125 307.6409375 -76.67578125 306.9609375 C-75.68578125 306.3009375 -74.69578125 305.6409375 -73.67578125 304.9609375 C-75.98578125 305.2909375 -78.29578125 305.6209375 -80.67578125 305.9609375 C-80.67578125 305.3009375 -80.67578125 304.6409375 -80.67578125 303.9609375 C-79.68578125 303.3009375 -78.69578125 302.6409375 -77.67578125 301.9609375 C-79.32578125 300.6409375 -80.97578125 299.3209375 -82.67578125 297.9609375 C-83.00578125 298.6209375 -83.33578125 299.2809375 -83.67578125 299.9609375 C-84.66578125 299.9609375 -85.65578125 299.9609375 -86.67578125 299.9609375 C-86.67578125 298.9709375 -86.67578125 297.9809375 -86.67578125 296.9609375 C-88.32578125 296.6309375 -89.97578125 296.3009375 -91.67578125 295.9609375 C-92.30078125 293.6484375 -92.30078125 293.6484375 -92.67578125 290.9609375 C-92.01578125 289.9709375 -91.35578125 288.9809375 -90.67578125 287.9609375 C-91.33578125 287.9609375 -91.99578125 287.9609375 -92.67578125 287.9609375 C-93.00578125 289.6109375 -93.33578125 291.2609375 -93.67578125 292.9609375 C-98.42864166 288.66803132 -98.42864166 288.66803132 -98.67578125 284.9609375 C-98.01578125 284.3009375 -97.35578125 283.6409375 -96.67578125 282.9609375 C-97.33578125 282.6309375 -97.99578125 282.3009375 -98.67578125 281.9609375 C-99.33578125 283.2809375 -99.99578125 284.6009375 -100.67578125 285.9609375 C-101.67578125 281.0859375 -101.67578125 281.0859375 -101.67578125 279.9609375 C-102.33578125 280.9509375 -102.99578125 281.9409375 -103.67578125 282.9609375 C-104.00578125 281.3109375 -104.33578125 279.6609375 -104.67578125 277.9609375 C-104.01578125 277.6309375 -103.35578125 277.3009375 -102.67578125 276.9609375 C-104.88659976 276.85552824 -104.88659976 276.85552824 -107.67578125 277.9609375 C-108.17078125 276.4759375 -108.17078125 276.4759375 -108.67578125 274.9609375 C-109.33578125 274.9609375 -109.99578125 274.9609375 -110.67578125 274.9609375 C-111.33578125 273.6409375 -111.99578125 272.3209375 -112.67578125 270.9609375 C-113.00578125 270.9609375 -113.33578125 270.9609375 -113.67578125 270.9609375 C-114.00578125 269.3109375 -114.33578125 267.6609375 -114.67578125 265.9609375 C-115.66578125 265.6309375 -116.65578125 265.3009375 -117.67578125 264.9609375 C-117.67578125 263.9709375 -117.67578125 262.9809375 -117.67578125 261.9609375 C-118.66578125 261.9609375 -119.65578125 261.9609375 -120.67578125 261.9609375 C-120.67578125 259.3209375 -120.67578125 256.6809375 -120.67578125 253.9609375 C-121.33578125 254.9509375 -121.99578125 255.9409375 -122.67578125 256.9609375 C-123.67578125 255.9609375 -123.67578125 255.9609375 -123.80078125 253.7109375 C-123.67872402 251.02567836 -123.27381964 248.57735547 -122.67578125 245.9609375 C-122.96453125 246.6003125 -123.25328125 247.2396875 -123.55078125 247.8984375 C-124.67578125 249.9609375 -124.67578125 249.9609375 -126.67578125 250.9609375 C-126.67578125 248.6509375 -126.67578125 246.3409375 -126.67578125 243.9609375 C-126.01578125 243.9609375 -125.35578125 243.9609375 -124.67578125 243.9609375 C-125.12953125 242.9296875 -125.58328125 241.8984375 -126.05078125 240.8359375 C-127.44285486 237.59656242 -128.60959003 234.32354057 -129.67578125 230.9609375 C-130.00578125 233.2709375 -130.33578125 235.5809375 -130.67578125 237.9609375 C-131.33578125 237.9609375 -131.99578125 237.9609375 -132.67578125 237.9609375 C-132.80078125 230.3359375 -132.80078125 230.3359375 -131.67578125 226.9609375 C-132.0697546 224.32289161 -132.0697546 224.32289161 -132.67578125 221.9609375 C-133.00578125 225.2609375 -133.33578125 228.5609375 -133.67578125 231.9609375 C-134.33578125 231.9609375 -134.99578125 231.9609375 -135.67578125 231.9609375 C-135.70264063 229.81517113 -135.72211213 227.66931105 -135.73828125 225.5234375 C-135.75568359 223.73099609 -135.75568359 223.73099609 -135.7734375 221.90234375 C-135.67578125 218.9609375 -135.67578125 218.9609375 -134.67578125 217.9609375 C-134.9297661 216.11228411 -134.9297661 216.11228411 -135.48046875 213.953125 C-135.6722168 213.13424805 -135.86396484 212.31537109 -136.06152344 211.47167969 C-136.44145471 209.91873324 -136.82649425 208.36701463 -137.21972656 206.81738281 C-142.86349161 184.31561829 -142.69387994 159.21710356 -138.234375 136.49609375 C-137.71999365 133.24074322 -137.73157394 131.96128046 -138.67578125 128.9609375 C-138.74321473 126.87859158 -138.76092597 124.79425193 -138.73828125 122.7109375 C-138.72925781 121.63328125 -138.72023437 120.555625 -138.7109375 119.4453125 C-138.69933594 118.62546875 -138.68773437 117.805625 -138.67578125 116.9609375 C-138.01578125 116.9609375 -137.35578125 116.9609375 -136.67578125 116.9609375 C-136.34578125 118.9409375 -136.01578125 120.9209375 -135.67578125 122.9609375 C-135.18078125 121.9709375 -135.18078125 121.9709375 -134.67578125 120.9609375 C-135.00578125 119.9709375 -135.33578125 118.9809375 -135.67578125 117.9609375 C-135.74381092 116.23298398 -135.7607377 114.50258385 -135.73828125 112.7734375 C-135.72474609 111.42185547 -135.72474609 111.42185547 -135.7109375 110.04296875 C-135.69933594 109.35589844 -135.68773437 108.66882813 -135.67578125 107.9609375 C-135.01578125 107.9609375 -134.35578125 107.9609375 -133.67578125 107.9609375 C-133.34578125 109.9409375 -133.01578125 111.9209375 -132.67578125 113.9609375 C-132.18078125 112.9709375 -132.18078125 112.9709375 -131.67578125 111.9609375 C-132.00578125 111.3009375 -132.33578125 110.6409375 -132.67578125 109.9609375 C-132.80993597 107.2885754 -132.71896666 104.63843262 -132.67578125 101.9609375 C-132.01578125 101.9609375 -131.35578125 101.9609375 -130.67578125 101.9609375 C-130.67578125 104.2709375 -130.67578125 106.5809375 -130.67578125 108.9609375 C-130.01578125 108.9609375 -129.35578125 108.9609375 -128.67578125 108.9609375 C-129.00578125 104.3409375 -129.33578125 99.7209375 -129.67578125 94.9609375 C-129.01578125 94.9609375 -128.35578125 94.9609375 -127.67578125 94.9609375 C-127.34578125 97.2709375 -127.01578125 99.5809375 -126.67578125 101.9609375 C-126.01578125 99.9809375 -125.35578125 98.0009375 -124.67578125 95.9609375 C-125.33578125 95.9609375 -125.99578125 95.9609375 -126.67578125 95.9609375 C-126.67578125 93.6509375 -126.67578125 91.3409375 -126.67578125 88.9609375 C-124.67578125 89.9609375 -124.67578125 89.9609375 -123.67578125 91.9609375 C-123.67578125 90.9709375 -123.67578125 89.9809375 -123.67578125 88.9609375 C-123.67578125 87.29427083 -123.67578125 85.62760417 -123.67578125 83.9609375 C-122.19078125 83.4659375 -122.19078125 83.4659375 -120.67578125 82.9609375 C-120.67578125 81.6409375 -120.67578125 80.3209375 -120.67578125 78.9609375 C-119.68578125 78.4659375 -119.68578125 78.4659375 -118.67578125 77.9609375 C-117.54227591 75.94423923 -117.54227591 75.94423923 -116.67578125 73.9609375 C-116.01578125 73.9609375 -115.35578125 73.9609375 -114.67578125 73.9609375 C-114.34578125 72.3109375 -114.01578125 70.6609375 -113.67578125 68.9609375 C-112.68578125 68.9609375 -111.69578125 68.9609375 -110.67578125 68.9609375 C-110.67578125 67.6409375 -110.67578125 66.3209375 -110.67578125 64.9609375 C-109.68578125 64.9609375 -108.69578125 64.9609375 -107.67578125 64.9609375 C-107.67578125 63.9709375 -107.67578125 62.9809375 -107.67578125 61.9609375 C-106.35578125 62.6209375 -105.03578125 63.2809375 -103.67578125 63.9609375 C-102.35578125 62.6409375 -101.03578125 61.3209375 -99.67578125 59.9609375 C-100.66578125 59.4659375 -100.66578125 59.4659375 -101.67578125 58.9609375 C-101.34578125 57.3109375 -101.01578125 55.6609375 -100.67578125 53.9609375 C-100.01578125 55.2809375 -99.35578125 56.6009375 -98.67578125 57.9609375 C-98.01578125 57.6309375 -97.35578125 57.3009375 -96.67578125 56.9609375 C-97.33578125 55.6409375 -97.99578125 54.3209375 -98.67578125 52.9609375 C-97.35578125 50.9809375 -96.03578125 49.0009375 -94.67578125 46.9609375 C-92.67578125 49.9609375 -92.67578125 49.9609375 -92.67578125 51.9609375 C-92.01578125 51.6309375 -91.35578125 51.3009375 -90.67578125 50.9609375 C-91.33578125 50.3009375 -91.99578125 49.6409375 -92.67578125 48.9609375 C-92.67578125 47.9709375 -92.67578125 46.9809375 -92.67578125 45.9609375 C-91.68578125 45.9609375 -90.69578125 45.9609375 -89.67578125 45.9609375 C-89.67578125 46.9509375 -89.67578125 47.9409375 -89.67578125 48.9609375 C-89.12148437 48.455625 -88.5671875 47.9503125 -87.99609375 47.4296875 C-87.27164063 46.78 -86.5471875 46.1303125 -85.80078125 45.4609375 C-85.08148438 44.81125 -84.3621875 44.1615625 -83.62109375 43.4921875 C-81.67578125 41.9609375 -81.67578125 41.9609375 -79.67578125 41.9609375 C-79.34578125 40.9709375 -79.01578125 39.9809375 -78.67578125 38.9609375 C-78.01578125 38.6309375 -77.35578125 38.3009375 -76.67578125 37.9609375 C-77.99578125 36.9709375 -79.31578125 35.9809375 -80.67578125 34.9609375 C-79.67578125 33.9609375 -79.67578125 33.9609375 -77.11328125 33.8984375 C-76.30890625 33.9190625 -75.50453125 33.9396875 -74.67578125 33.9609375 C-74.67578125 34.6209375 -74.67578125 35.2809375 -74.67578125 35.9609375 C-74.01578125 35.6309375 -73.35578125 35.3009375 -72.67578125 34.9609375 C-73.99578125 34.3009375 -75.31578125 33.6409375 -76.67578125 32.9609375 C-76.67578125 32.3009375 -76.67578125 31.6409375 -76.67578125 30.9609375 C-73.67578125 30.9609375 -70.67578125 30.9609375 -67.67578125 30.9609375 C-65.44834338 29.54115841 -65.44834338 29.54115841 -63.67578125 27.9609375 C-65.32578125 27.3009375 -66.97578125 26.6409375 -68.67578125 25.9609375 C-68.01578125 25.3009375 -67.35578125 24.6409375 -66.67578125 23.9609375 C-64.05078125 24.3359375 -64.05078125 24.3359375 -61.67578125 24.9609375 C-61.67578125 25.6209375 -61.67578125 26.2809375 -61.67578125 26.9609375 C-59.69086483 26.69417546 -59.69086483 26.69417546 -57.67578125 25.9609375 C-57.18078125 24.4759375 -57.18078125 24.4759375 -56.67578125 22.9609375 C-55.68578125 22.6309375 -54.69578125 22.3009375 -53.67578125 21.9609375 C-55.32578125 21.3009375 -56.97578125 20.6409375 -58.67578125 19.9609375 C-58.34578125 19.3009375 -58.01578125 18.6409375 -57.67578125 17.9609375 C-54.18343881 17.86115629 -51.08140977 18.18250812 -47.67578125 18.9609375 C-48.33578125 18.6309375 -48.99578125 18.3009375 -49.67578125 17.9609375 C-51.00911458 17.29427083 -52.34244792 16.62760417 -53.67578125 15.9609375 C-52.67578125 14.9609375 -52.67578125 14.9609375 -50.17578125 14.8359375 C-47.67578125 14.9609375 -47.67578125 14.9609375 -46.67578125 15.9609375 C-44.21768127 16.2110148 -44.21768127 16.2110148 -41.67578125 15.9609375 C-41.01578125 15.3009375 -40.35578125 14.6409375 -39.67578125 13.9609375 C-37.69593644 13.23660403 -35.68994687 12.58349778 -33.67578125 11.9609375 C-32.04972332 11.42245502 -30.42475538 10.88067213 -28.80078125 10.3359375 C-26.75890625 9.6553125 -26.75890625 9.6553125 -24.67578125 8.9609375 C-29.62578125 8.4659375 -29.62578125 8.4659375 -34.67578125 7.9609375 C-34.67578125 7.3009375 -34.67578125 6.6409375 -34.67578125 5.9609375 C-29.50029116 5.87049204 -24.75881191 5.94433137 -19.67578125 6.9609375 C-18.00277562 6.66103575 -16.33465699 6.33109986 -14.67578125 5.9609375 C-15.45824219 5.91195313 -16.24070312 5.86296875 -17.046875 5.8125 C-18.05878906 5.73773437 -19.07070312 5.66296875 -20.11328125 5.5859375 C-21.62728516 5.48152344 -21.62728516 5.48152344 -23.171875 5.375 C-23.99816406 5.23835937 -24.82445313 5.10171875 -25.67578125 4.9609375 C-26.17078125 3.9709375 -26.17078125 3.9709375 -26.67578125 2.9609375 C-20.92478054 1.89593737 -16.75938201 2.23154783 -11.0859375 3.546875 C-7.68699973 4.1308092 -5.02594802 3.68923462 -1.67578125 2.9609375 C-3.17431641 2.88746094 -3.17431641 2.88746094 -4.703125 2.8125 C-6.63865234 2.70035156 -6.63865234 2.70035156 -8.61328125 2.5859375 C-10.54494141 2.48152344 -10.54494141 2.48152344 -12.515625 2.375 C-14.07990234 2.17003906 -14.07990234 2.17003906 -15.67578125 1.9609375 C-16.17078125 0.9709375 -16.17078125 0.9709375 -16.67578125 -0.0390625 C-10.92926959 -1.47569041 -5.66890365 -1.60247436 0 0 Z M142.32421875 45.9609375 C141.99421875 46.6209375 141.66421875 47.2809375 141.32421875 47.9609375 C142.31421875 48.2909375 143.30421875 48.6209375 144.32421875 48.9609375 C144.32421875 47.9709375 144.32421875 46.9809375 144.32421875 45.9609375 C143.66421875 45.9609375 143.00421875 45.9609375 142.32421875 45.9609375 Z M147.32421875 47.9609375 C146.33421875 49.4459375 146.33421875 49.4459375 145.32421875 50.9609375 C146.31421875 51.4559375 146.31421875 51.4559375 147.32421875 51.9609375 C147.65421875 50.6409375 147.98421875 49.3209375 148.32421875 47.9609375 C147.99421875 47.9609375 147.66421875 47.9609375 147.32421875 47.9609375 Z M-96.67578125 50.9609375 C-96.34578125 52.2809375 -96.01578125 53.6009375 -95.67578125 54.9609375 C-94.68578125 54.6309375 -93.69578125 54.3009375 -92.67578125 53.9609375 C-93.99578125 52.9709375 -95.31578125 51.9809375 -96.67578125 50.9609375 Z M148.76171875 52.4609375 C148.28734375 52.9559375 147.81296875 53.4509375 147.32421875 53.9609375 C148.31421875 54.2909375 149.30421875 54.6209375 150.32421875 54.9609375 C150.65421875 53.6409375 150.98421875 52.3209375 151.32421875 50.9609375 C150.08345573 50.84551553 150.08345573 50.84551553 148.76171875 52.4609375 Z M-108.67578125 67.9609375 C-108.01578125 68.6209375 -107.35578125 69.2809375 -106.67578125 69.9609375 C-106.34578125 69.3009375 -106.01578125 68.6409375 -105.67578125 67.9609375 C-106.66578125 67.9609375 -107.65578125 67.9609375 -108.67578125 67.9609375 Z M160.32421875 67.9609375 C160.65421875 68.6209375 160.98421875 69.2809375 161.32421875 69.9609375 C161.98421875 69.9609375 162.64421875 69.9609375 163.32421875 69.9609375 C163.32421875 69.3009375 163.32421875 68.6409375 163.32421875 67.9609375 C162.33421875 67.9609375 161.34421875 67.9609375 160.32421875 67.9609375 Z M-111.67578125 70.9609375 C-111.67578125 71.9509375 -111.67578125 72.9409375 -111.67578125 73.9609375 C-110.68578125 73.6309375 -109.69578125 73.3009375 -108.67578125 72.9609375 C-109.00578125 72.3009375 -109.33578125 71.6409375 -109.67578125 70.9609375 C-110.33578125 70.9609375 -110.99578125 70.9609375 -111.67578125 70.9609375 Z M164.32421875 70.9609375 C164.32421875 71.9509375 164.32421875 72.9409375 164.32421875 73.9609375 C164.98421875 73.9609375 165.64421875 73.9609375 166.32421875 73.9609375 C166.32421875 72.9709375 166.32421875 71.9809375 166.32421875 70.9609375 C165.66421875 70.9609375 165.00421875 70.9609375 164.32421875 70.9609375 Z M-113.67578125 74.9609375 C-114.00578125 75.9509375 -114.33578125 76.9409375 -114.67578125 77.9609375 C-114.01578125 77.9609375 -113.35578125 77.9609375 -112.67578125 77.9609375 C-112.34578125 76.9709375 -112.01578125 75.9809375 -111.67578125 74.9609375 C-112.33578125 74.9609375 -112.99578125 74.9609375 -113.67578125 74.9609375 Z M171.32421875 79.9609375 C171.32421875 81.2809375 171.32421875 82.6009375 171.32421875 83.9609375 C171.65421875 82.6409375 171.98421875 81.3209375 172.32421875 79.9609375 C171.99421875 79.9609375 171.66421875 79.9609375 171.32421875 79.9609375 Z M-117.67578125 80.9609375 C-117.34578125 81.9509375 -117.01578125 82.9409375 -116.67578125 83.9609375 C-116.34578125 82.9709375 -116.01578125 81.9809375 -115.67578125 80.9609375 C-116.33578125 80.9609375 -116.99578125 80.9609375 -117.67578125 80.9609375 Z M-120.67578125 86.9609375 C-120.34578125 87.6209375 -120.01578125 88.2809375 -119.67578125 88.9609375 C-119.34578125 88.3009375 -119.01578125 87.6409375 -118.67578125 86.9609375 C-119.33578125 86.9609375 -119.99578125 86.9609375 -120.67578125 86.9609375 Z M173.32421875 86.9609375 C173.65421875 87.9509375 173.98421875 88.9409375 174.32421875 89.9609375 C174.65421875 88.9709375 174.98421875 87.9809375 175.32421875 86.9609375 C174.66421875 86.9609375 174.00421875 86.9609375 173.32421875 86.9609375 Z M-117.67578125 255.9609375 C-117.34578125 257.2809375 -117.01578125 258.6009375 -116.67578125 259.9609375 C-116.67578125 258.6409375 -116.67578125 257.3209375 -116.67578125 255.9609375 C-117.00578125 255.9609375 -117.33578125 255.9609375 -117.67578125 255.9609375 Z M170.32421875 256.9609375 C170.65421875 257.9509375 170.98421875 258.9409375 171.32421875 259.9609375 C171.65421875 258.9709375 171.98421875 257.9809375 172.32421875 256.9609375 C171.66421875 256.9609375 171.00421875 256.9609375 170.32421875 256.9609375 Z M-111.67578125 265.9609375 C-111.34578125 267.2809375 -111.01578125 268.6009375 -110.67578125 269.9609375 C-110.01578125 268.9709375 -109.35578125 267.9809375 -108.67578125 266.9609375 C-109.66578125 266.6309375 -110.65578125 266.3009375 -111.67578125 265.9609375 Z M164.32421875 265.9609375 C164.65421875 267.2809375 164.98421875 268.6009375 165.32421875 269.9609375 C165.65421875 268.6409375 165.98421875 267.3209375 166.32421875 265.9609375 C165.66421875 265.9609375 165.00421875 265.9609375 164.32421875 265.9609375 Z M-108.67578125 270.9609375 C-108.34578125 271.6209375 -108.01578125 272.2809375 -107.67578125 272.9609375 C-107.34578125 272.3009375 -107.01578125 271.6409375 -106.67578125 270.9609375 C-107.33578125 270.9609375 -107.99578125 270.9609375 -108.67578125 270.9609375 Z M161.32421875 270.9609375 C161.32421875 271.6209375 161.32421875 272.2809375 161.32421875 272.9609375 C161.98421875 272.9609375 162.64421875 272.9609375 163.32421875 272.9609375 C163.32421875 272.3009375 163.32421875 271.6409375 163.32421875 270.9609375 C162.66421875 270.9609375 162.00421875 270.9609375 161.32421875 270.9609375 Z M154.32421875 278.9609375 C154.32421875 279.6209375 154.32421875 280.2809375 154.32421875 280.9609375 C155.31421875 281.2909375 156.30421875 281.6209375 157.32421875 281.9609375 C156.99421875 280.9709375 156.66421875 279.9809375 156.32421875 278.9609375 C155.66421875 278.9609375 155.00421875 278.9609375 154.32421875 278.9609375 Z M151.32421875 281.9609375 C151.32421875 282.6209375 151.32421875 283.2809375 151.32421875 283.9609375 C151.98421875 283.9609375 152.64421875 283.9609375 153.32421875 283.9609375 C153.32421875 283.3009375 153.32421875 282.6409375 153.32421875 281.9609375 C152.66421875 281.9609375 152.00421875 281.9609375 151.32421875 281.9609375 Z M-95.67578125 284.9609375 C-96.00578125 286.2809375 -96.33578125 287.6009375 -96.67578125 288.9609375 C-95.68578125 288.3009375 -94.69578125 287.6409375 -93.67578125 286.9609375 C-93.67578125 286.3009375 -93.67578125 285.6409375 -93.67578125 284.9609375 C-94.33578125 284.9609375 -94.99578125 284.9609375 -95.67578125 284.9609375 Z M149.32421875 284.9609375 C149.32421875 285.9509375 149.32421875 286.9409375 149.32421875 287.9609375 C149.98421875 288.2909375 150.64421875 288.6209375 151.32421875 288.9609375 C150.66421875 287.6409375 150.00421875 286.3209375 149.32421875 284.9609375 Z M146.32421875 287.9609375 C145.99421875 288.9509375 145.66421875 289.9409375 145.32421875 290.9609375 C146.31421875 291.2909375 147.30421875 291.6209375 148.32421875 291.9609375 C147.66421875 290.6409375 147.00421875 289.3209375 146.32421875 287.9609375 Z M-89.67578125 290.9609375 C-89.67578125 291.9509375 -89.67578125 292.9409375 -89.67578125 293.9609375 C-88.68578125 293.6309375 -87.69578125 293.3009375 -86.67578125 292.9609375 C-87.00578125 292.3009375 -87.33578125 291.6409375 -87.67578125 290.9609375 C-88.33578125 290.9609375 -88.99578125 290.9609375 -89.67578125 290.9609375 Z M142.32421875 291.9609375 C142.32421875 292.6209375 142.32421875 293.2809375 142.32421875 293.9609375 C143.31421875 294.2909375 144.30421875 294.6209375 145.32421875 294.9609375 C144.99421875 293.9709375 144.66421875 292.9809375 144.32421875 291.9609375 C143.66421875 291.9609375 143.00421875 291.9609375 142.32421875 291.9609375 Z M-86.67578125 293.9609375 C-86.67578125 294.9509375 -86.67578125 295.9409375 -86.67578125 296.9609375 C-85.68578125 296.6309375 -84.69578125 296.3009375 -83.67578125 295.9609375 C-84.00578125 295.3009375 -84.33578125 294.6409375 -84.67578125 293.9609375 C-85.33578125 293.9609375 -85.99578125 293.9609375 -86.67578125 293.9609375 Z " fill="#0A0B0B" transform="translate(141.67578125,2.0390625)"/>
<path d="M0 0 C15.48396925 0.47716392 29.49269287 4.89834675 44 10 C44.84691406 10.28230469 45.69382813 10.56460937 46.56640625 10.85546875 C63.02609796 16.78764191 78.50075765 28.17488821 91.75 39.375 C92.35932373 39.88724121 92.96864746 40.39948242 93.59643555 40.92724609 C97.87686788 44.63060363 97.87686788 44.63060363 99 48 C99.57492187 48.27457031 100.14984375 48.54914062 100.7421875 48.83203125 C103.91448697 50.47306506 105.88222047 52.98201983 108.125 55.6875 C108.84296753 56.54927856 108.84296753 56.54927856 109.57543945 57.4284668 C118.78852463 68.69497046 125.90479171 80.81554394 132 94 C132.54527344 95.16273437 133.09054687 96.32546875 133.65234375 97.5234375 C151.39380506 136.97900287 151.98014291 183.57336198 137 224 C135.21687367 228.1385558 133.15730226 232.04764924 131 236 C130.16206208 237.74917065 129.32430426 239.49843735 128.49291992 241.25073242 C125.48558188 247.52849771 122.0425201 253.08680891 117.796875 258.59765625 C115.95030463 260.97559322 115.95030463 260.97559322 114.453125 263.62109375 C113.11601959 265.81006471 111.85608543 267.26320026 110 269 C108.88576647 270.24103492 107.78221137 271.49171107 106.6875 272.75 C106.07390625 273.45253906 105.4603125 274.15507812 104.828125 274.87890625 C103.68090801 276.20997211 102.54381616 277.54990477 101.421875 278.90234375 C98.22781377 282.74362266 95.00575903 285.99568073 91 289 C90.34 289 89.68 289 89 289 C88.67 289.99 88.34 290.98 88 292 C85.41927097 294.32265612 84.54823932 295 81 295 C81 295.66 81 296.32 81 297 C80.34 297 79.68 297 79 297 C79 297.66 79 298.32 79 299 C77.6015625 300.10986328 77.6015625 300.10986328 75.625 301.3203125 C74.89539063 301.76930908 74.16578125 302.21830566 73.4140625 302.6809082 C72.61742187 303.1574585 71.82078125 303.63400879 71 304.125 C70.18273437 304.61637451 69.36546875 305.10774902 68.5234375 305.61401367 C51.91756329 315.4801779 35.35338534 322.48073392 16.375 326.375 C15.14958496 326.62685059 15.14958496 326.62685059 13.89941406 326.88378906 C8.83646148 327.84726915 4.15298123 328.05753361 -1 328 C-6.50486948 317.17588164 -11.73484943 306.24690777 -16.80877686 295.21469116 C-18.87989225 290.7121349 -20.95966734 286.21358077 -23.0390625 281.71484375 C-23.4577359 280.80867813 -23.8764093 279.90251251 -24.30776978 278.96888733 C-28.29046433 270.35629947 -32.32551239 261.76883901 -36.375 253.1875 C-54.7625297 214.1991531 -54.7625297 214.1991531 -63.11108398 195.38720703 C-64.73799915 191.7339954 -66.42229349 188.13777373 -68.24609375 184.578125 C-70 181 -70 181 -70 179 C-75.61 179 -81.22 179 -87 179 C-86.99214478 181.85483032 -86.99214478 181.85483032 -86.98413086 184.76733398 C-86.96803329 191.04179524 -86.95652775 197.31625162 -86.94818783 203.59072781 C-86.9429598 207.39651577 -86.93586362 211.20228148 -86.92456055 215.00805664 C-86.9137288 218.67792544 -86.90772256 222.34777278 -86.90512276 226.01765633 C-86.90326903 227.42074992 -86.8996494 228.82384229 -86.89426994 230.2269268 C-86.88705581 232.1856968 -86.88659191 234.1444882 -86.88647461 236.10327148 C-86.884254 237.22023911 -86.88203339 238.33720673 -86.87974548 239.48802185 C-87 242 -87 242 -88 243 C-97.57 243 -107.14 243 -117 243 C-117 212.31 -117 181.62 -117 150 C-86.5 149.75 -86.5 149.75 -76.91210938 149.70214844 C-74.38930445 149.67276942 -71.86651579 149.64194198 -69.34375 149.609375 C-68.04598633 149.60824707 -66.74822266 149.60711914 -65.41113281 149.60595703 C-57.39547306 149.4796534 -51.17345848 148.98217496 -45.125 143.2109375 C-41.84991313 137.86617768 -40.90627648 133.21802076 -42 127 C-43.31487966 123.26518224 -45.16213851 120.65670225 -48.3125 118.1875 C-56.08055786 114.75510234 -63.16837817 114.66348553 -71.58984375 114.5859375 C-72.88950577 114.56657135 -74.18916779 114.5472052 -75.5282135 114.5272522 C-78.96234179 114.47618655 -82.39650901 114.4364252 -85.83081055 114.39910889 C-89.34368277 114.35890769 -92.85639911 114.30799285 -96.36914062 114.2578125 C-103.24603275 114.16035433 -110.12280778 114.08063354 -117 114 C-117 104.43 -117 94.86 -117 85 C-100.71136688 84.71923833 -100.71136688 84.71923833 -93.65820312 84.65820312 C-88.88330239 84.61668413 -84.10935884 84.56809259 -79.33520508 84.47192383 C-40.32397385 83.70674826 -40.32397385 83.70674826 -24.78515625 97.26953125 C-24.19605469 97.84058594 -23.60695313 98.41164063 -23 99 C-22.44183594 99.51949219 -21.88367188 100.03898437 -21.30859375 100.57421875 C-14.87535729 107.2331828 -11.25555122 116.80015614 -11 126 C-10.94972656 126.90234375 -10.89945312 127.8046875 -10.84765625 128.734375 C-10.3766332 143.27956682 -14.56177808 155.05113322 -24.4140625 165.65625 C-28.40083569 169.2696396 -34.36975107 174 -40 174 C-39.37508667 175.32499512 -39.37508667 175.32499512 -38.73754883 176.67675781 C-31.64150962 191.72541379 -24.54989613 206.77551647 -17.5625 221.875 C-12.93620975 231.87075382 -8.25219431 241.83777584 -3.54071045 251.7935791 C2.02518929 263.55602658 7.58178824 275.32257215 13.0625 287.125 C13.56918213 288.2092627 14.07586426 289.29352539 14.59790039 290.41064453 C15.05156982 291.39145996 15.50523926 292.37227539 15.97265625 293.3828125 C16.36718994 294.23246582 16.76172363 295.08211914 17.16821289 295.95751953 C18 298 18 298 18 300 C29.53970891 296.22960006 40.31585164 291.76714245 51 286 C52.62421875 285.13375 52.62421875 285.13375 54.28125 284.25 C61.52081874 280.21972462 67.76020745 275.43228999 74 270 C75.28390625 268.9171875 75.28390625 268.9171875 76.59375 267.8125 C100.96793545 246.74838911 116.59950521 214.64835856 121 183 C121.19529297 181.64841797 121.19529297 181.64841797 121.39453125 180.26953125 C122.9770585 166.6597969 122.75051635 152.41301184 120 139 C119.77054688 137.81664062 119.54109375 136.63328125 119.3046875 135.4140625 C112.82848401 103.44206844 95.10185085 73.73299924 69 54 C68.21351074 53.39309326 68.21351074 53.39309326 67.41113281 52.77392578 C54.12139298 42.56523904 32.82334866 28.3952893 15.65625 27.9375 C12.82332231 27.78641052 11.3864035 27.58194733 9 26 C6.64713905 21.48906834 5.12339299 16.89373005 3.66503906 12.03369141 C3.00309988 10.00947946 2.20887948 8.1093713 1.3359375 6.16796875 C0 3 0 3 0 0 Z " fill="#F8F9F9" transform="translate(186,8)"/>
<path d="M0 0 C4.19365006 10.81783529 8.27245796 21.62352437 11.85546875 32.66015625 C13.28441647 36.82995249 15.00080975 40.83993208 16.7421875 44.88671875 C18.67243929 49.66439167 20.22179572 54.55011881 21.7890625 59.45703125 C23.02136141 63.06249936 24.49189315 66.50247561 26 70 C26.6488524 71.88780285 27.2748987 73.7836388 27.875 75.6875 C29.23076049 79.83726119 30.72693799 83.85866476 32.4375 87.875 C34.63631894 93.04752286 36.55844111 98.27286728 38.421875 103.57421875 C40.52985438 109.53111713 42.74053666 115.45049516 44.9375 121.375 C45.59250488 123.14327148 45.59250488 123.14327148 46.26074219 124.94726562 C48.11754456 129.95352799 49.97799313 134.95803418 51.875 139.94921875 C54.23614967 146.1629575 56.46348899 152.34091326 58.27734375 158.73828125 C59.5218999 162.63340563 61.24513374 166.31210847 63 170 C65.66119581 166.83864024 66.89703672 163.87003184 68.15625 159.94921875 C68.53910156 158.77552734 68.92195312 157.60183594 69.31640625 156.39257812 C69.70699219 155.16990234 70.09757813 153.94722656 70.5 152.6875 C74.91479119 138.99873326 74.91479119 138.99873326 76.65234375 135.06640625 C78.53228318 130.78886291 79.73764041 126.37200502 81.03515625 121.890625 C82 119 82 119 84 116 C86.98095703 115.65942383 86.98095703 115.65942383 90.7578125 115.70703125 C91.42086395 115.71127609 92.08391541 115.71552094 92.76705933 115.71989441 C94.88678441 115.73670029 97.00556188 115.77435299 99.125 115.8125 C100.56118419 115.82754451 101.99738328 115.84123332 103.43359375 115.85351562 C106.95603764 115.8866091 110.47792636 115.9384032 114 116 C109.82849147 128.095374 105.35447238 140.05608923 100.72363281 151.98266602 C99.63066241 154.7979149 98.5415824 157.61464422 97.453125 160.43164062 C93.5980153 170.39311643 89.70049341 180.3349665 85.66934204 190.22676086 C83.84439588 194.74077817 82.20884791 199.2769318 80.69836426 203.90538025 C79.71268313 206.861756 78.58630871 209.75437121 77.44140625 212.65234375 C76.73854492 214.43608398 76.73854492 214.43608398 76.02148438 216.25585938 C75.54001953 217.47080078 75.05855469 218.68574219 74.5625 219.9375 C74.08490234 221.14857422 73.60730469 222.35964844 73.11523438 223.60742188 C70.42926715 230.41260907 67.72471654 237.21023744 65 244 C63.68 244 62.36 244 61 244 C60.58532471 242.79553223 60.17064941 241.59106445 59.7434082 240.35009766 C55.44715505 227.93611653 50.89399944 215.63855538 46.1875 203.375 C45.48390419 201.53540569 44.7805377 199.69572365 44.07739258 197.85595703 C42.05568694 192.56906514 40.02885929 187.28415024 38 182 C37.57605957 180.89567627 37.57605957 180.89567627 37.14355469 179.76904297 C34.73972425 173.50827683 32.33184026 167.24908971 29.91796875 160.9921875 C28.54841453 157.43649969 27.19751509 153.87469377 25.86450195 150.30517578 C23.76114887 144.69663022 21.62615013 139.09993937 19.5 133.5 C13.76429355 118.39306662 13.76429355 118.39306662 11 111 C10.53980469 109.7728125 10.07960937 108.545625 9.60546875 107.28125 C9.37520996 106.66717285 9.14495117 106.0530957 8.90771484 105.42041016 C8.40948379 104.09190662 7.91110149 102.7634598 7.41259766 101.43505859 C6.07769503 97.877221 4.74520116 94.31851919 3.41796875 90.7578125 C1.00049993 84.27881373 -1.42709115 77.80858057 -4.04296875 71.40625 C-5.41476825 67.9571541 -6.70477112 64.47845132 -8 61 C-12.23711739 49.62796655 -16.5787395 38.30168364 -21 27 C-35.92821911 27.31639771 -49.84385811 32.16564058 -63 39 C-63.94141846 39.48726562 -63.94141846 39.48726562 -64.90185547 39.984375 C-74.68771775 45.10541204 -83.55426855 50.8841361 -92 58 C-92.51014648 58.42506836 -93.02029297 58.85013672 -93.54589844 59.28808594 C-120.93311574 82.36837243 -137.96842781 117.48832099 -141 153 C-141.71106814 165.09754541 -141.07989715 177.05942051 -139 189 C-138.88172852 189.69770508 -138.76345703 190.39541016 -138.64160156 191.11425781 C-132.61577942 225.26058329 -112.58132213 258.18470982 -84.28466797 278.46582031 C-81.55950299 280.3691865 -78.78684116 282.18771886 -76 284 C-75.07832031 284.60714844 -74.15664062 285.21429688 -73.20703125 285.83984375 C-59.44060137 294.40260197 -40.45259401 302.91878044 -23.95703125 303.1171875 C-19.85211667 303.25496351 -16.81256581 303.44606323 -13 305 C-9.44297154 309.00607177 -7.58420067 314.08081591 -5.75585938 319.04882812 C-4.9337895 321.27057009 -4.9337895 321.27057009 -3.296875 324.328125 C-2 327 -2 327 -2 330 C-29.40075496 330.9259329 -55.86740671 323.82267358 -80 311 C-80.61166016 310.68015137 -81.22332031 310.36030273 -81.85351562 310.03076172 C-100.29968716 300.31880201 -116.23482548 286.41236724 -129 270 C-129.66515625 269.20078125 -130.3303125 268.4015625 -131.015625 267.578125 C-150 244.70718504 -150 244.70718504 -150 235 C-150.66 235 -151.32 235 -152 235 C-165.14961458 202.82541112 -172.79671784 162.18629949 -163 128 C-162.74766602 127.11892578 -162.49533203 126.23785156 -162.23535156 125.33007812 C-159.61055428 116.37630228 -156.85085422 107.56170889 -152.95043945 99.07373047 C-152.08464052 97.18467417 -151.27725615 95.26912115 -150.4765625 93.3515625 C-143.10829054 76.62675472 -131.49651283 58.20185082 -117 47 C-116.2575 46.2575 -115.515 45.515 -114.75 44.75 C-106.20634479 36.20634479 -97.19749031 29.39526053 -87 23 C-85.89914063 22.29746094 -84.79828125 21.59492188 -83.6640625 20.87109375 C-58.4501274 5.56905 -29.18202276 -0.60169119 0 0 Z " fill="#F8F9F9" transform="translate(171,7)"/>
<path d="M0 0 C1.32 0.33 2.64 0.66 4 1 C4 1.66 4 2.32 4 3 C4.99 3.33 5.98 3.66 7 4 C7.33 3.01 7.66 2.02 8 1 C11.25 0.1875 11.25 0.1875 15 0 C18.22213678 2.71337834 18.92104819 4.63560703 19.8125 8.75 C19.874375 9.8225 19.93625 10.895 20 12 C19.67 12.33 19.34 12.66 19 13 C24.94 13.33 30.88 13.66 37 14 C37 14.33 37 14.66 37 15 C16.54 15 -3.92 15 -25 15 C-25 45.36 -25 75.72 -25 107 C-25.33 107 -25.66 107 -26 107 C-26 76.31 -26 45.62 -26 14 C-18.41 14 -10.82 14 -3 14 C-3 13.34 -3 12.68 -3 12 C0.3 12 3.6 12 7 12 C6.4946875 11.46890625 5.989375 10.9378125 5.46875 10.390625 C4.8190625 9.68421875 4.169375 8.9778125 3.5 8.25 C2.8503125 7.55390625 2.200625 6.8578125 1.53125 6.140625 C0 4 0 4 0 0 Z " fill="#282928" transform="translate(94,143)"/>
<path d="M0 0 C3 0 3 0 5.5625 2.375 C6.366875 3.24125 7.17125 4.1075 8 5 C8.66 5.66 9.32 6.32 10 7 C10.99 6.67 11.98 6.34 13 6 C13.69699552 7.45381897 14.38233866 8.91322953 15.0625 10.375 C15.44535156 11.18710938 15.82820313 11.99921875 16.22265625 12.8359375 C16.60744141 13.90714844 16.60744141 13.90714844 17 15 C16.67 15.66 16.34 16.32 16 17 C14.35 16.67 12.7 16.34 11 16 C11.33 17.65 11.66 19.3 12 21 C9.1240605 23.34335811 6.68258515 25.33043906 3 26 C0.11003539 24.63305212 -2.43379672 22.89758952 -5 21 C-4.43420053 19.36881217 -3.84665767 17.74515506 -3.25 16.125 C-2.92515625 15.22007813 -2.6003125 14.31515625 -2.265625 13.3828125 C-0.82978305 10.67952982 0.17427942 10.03293147 3 9 C2.505 8.443125 2.01 7.88625 1.5 7.3125 C-0.24754367 4.61837017 -0.26218749 3.14624993 0 0 Z " fill="#0D0F0E" transform="translate(157,79)"/>
<path d="M0 0 C4.43458973 1.3937282 6.87378374 3.60582235 10 7 C10.66 6.67 11.32 6.34 12 6 C12.69685498 7.6210103 13.38222861 9.24696066 14.0625 10.875 C14.44535156 11.77992188 14.82820313 12.68484375 15.22265625 13.6171875 C16 16 16 16 15 18 C14.34 18 13.68 18 13 18 C12.34 18.99 11.68 19.98 11 21 C7.4202048 21.91399027 5.53525784 22.17841928 2 21 C2 20.34 2 19.68 2 19 C1.34 19 0.68 19 0 19 C-0.93402724 13.58264203 -1.20808081 10.19548425 1 5 C0.01 4.01 -0.98 3.02 -2 2 C-1.34 1.34 -0.68 0.68 0 0 Z " fill="#161717" transform="translate(205,202)"/>
<path d="M0 0 C2.74953946 2.74953946 3.17042807 5.2350197 4 9 C3.625 11.9375 3.625 11.9375 3 14 C2.01 14.33 1.02 14.66 0 15 C0.495 16.98 0.495 16.98 1 19 C-2.43752007 17.4722133 -5.18953688 15.49818944 -8 13 C-8 12.34 -8 11.68 -8 11 C-8.804375 10.7525 -9.60875 10.505 -10.4375 10.25 C-11.283125 9.8375 -12.12875 9.425 -13 9 C-13.33 7.68 -13.66 6.36 -14 5 C-23.57 4.67 -33.14 4.34 -43 4 C-42.67 3.34 -42.34 2.68 -42 2 C-32.1 2 -22.2 2 -12 2 C-11.67 2.99 -11.34 3.98 -11 5 C-9.06669397 6.09166275 -9.06669397 6.09166275 -7 7 C-6.34 7.66 -5.68 8.32 -5 9 C-4.9175 7.88625 -4.835 6.7725 -4.75 5.625 C-4 2 -4 2 -1.9375 0.5625 C-0.9784375 0.2840625 -0.9784375 0.2840625 0 0 Z " fill="#282929" transform="translate(298,119)"/>
<path d="M0 0 C4.15486354 0.61100934 7.27698149 2.10050076 11 4 C12.98867713 4.69971973 14.98608051 5.37664397 17 6 C17 6.66 17 7.32 17 8 C17.99 8.33 18.98 8.66 20 9 C16.54691689 11.09651475 16.54691689 11.09651475 13.875 10.625 C13.25625 10.41875 12.6375 10.2125 12 10 C11.34 10 10.68 10 10 10 C9.25073929 13.66305234 8.7619986 16.42355152 10 20 C8.68 20.33 7.36 20.66 6 21 C5.72736328 20.12988281 5.72736328 20.12988281 5.44921875 19.2421875 C3.95464966 14.59752665 2.22944094 10.35271803 0 6 C0 5.34 0 4.68 0 4 C-0.66 4 -1.32 4 -2 4 C-1.34 2.68 -0.68 1.36 0 0 Z " fill="#161716" transform="translate(191,218)"/>
<path d="M0 0 C0.33 0 0.66 0 1 0 C1.00808685 0.72947845 1.01617371 1.45895691 1.02450562 2.21054077 C1.10282111 9.12415161 1.19021957 16.03759612 1.28752708 22.95096397 C1.33722757 26.50421713 1.38355709 30.05744427 1.421875 33.61083984 C1.46619853 37.70688596 1.52573719 41.80259371 1.5859375 45.8984375 C1.59748871 47.1592514 1.60903992 48.42006531 1.62094116 49.71908569 C1.72400055 55.94574302 2.09334141 61.7601644 3.57705688 67.81997681 C4.04953353 70.25531624 4.06777737 72.52519163 4 75 C1.83633576 71.34706037 1.17116181 67.49748062 0.4375 63.375 C0.31181641 62.71371094 0.18613281 62.05242187 0.05664062 61.37109375 C-1.83648434 51.04315545 -2.18644011 40.79981977 -2.18530273 30.32348633 C-2.18749244 28.07028382 -2.20572097 25.81756975 -2.22460938 23.56445312 C-2.25477248 15.53012768 -1.87398614 7.85587729 0 0 Z " fill="#B9B9B9" transform="translate(7,141)"/>
<path d="M0 0 C1.85776765 3.13498292 2.20140476 5.37471432 2 9 C3.093125 8.95875 4.18625 8.9175 5.3125 8.875 C9 9 9 9 12 11 C10.875 12.5 10.875 12.5 9 14 C5.90498792 14.25265405 3.79870027 14.39935013 1 13 C1.99 13.99 2.98 14.98 4 16 C3.67 16.99 3.34 17.98 3 19 C0.625 18.6875 0.625 18.6875 -2 18 C-2.66 17.01 -3.32 16.02 -4 15 C-5.97037241 12.43851587 -7.89834229 10.09601005 -10.25 7.875 C-12 6 -12 6 -12 3 C-9 3 -9 3 -7.39453125 4.53125 C-6.87246094 5.1809375 -6.35039062 5.830625 -5.8125 6.5 C-5.28269531 7.1496875 -4.75289062 7.799375 -4.20703125 8.46875 C-3.80871094 8.9740625 -3.41039062 9.479375 -3 10 C-2.87625 8.72125 -2.7525 7.4425 -2.625 6.125 C-2.25 2.25 -2.25 2.25 0 0 Z " fill="#161716" transform="translate(135,281)"/>
<path d="M0 0 C1.2065625 0.0309375 1.2065625 0.0309375 2.4375 0.0625 C2.4375 0.7225 2.4375 1.3825 2.4375 2.0625 C3.7575 2.7225 5.0775 3.3825 6.4375 4.0625 C4.7875 6.0425 3.1375 8.0225 1.4375 10.0625 C4.70704202 9.49878586 6.26325883 8.56287734 8.4375 6.0625 C8.7675 7.7125 9.0975 9.3625 9.4375 11.0625 C7.00084166 13.29030191 5.17199189 14.87887703 1.9375 15.6875 C-1.96486216 14.71190946 -3.33237993 12.28378454 -5.5625 9.0625 C-6.375 6.6875 -6.375 6.6875 -6.5625 5.0625 C-5.9025 5.0625 -5.2425 5.0625 -4.5625 5.0625 C-4.3459375 4.1034375 -4.3459375 4.1034375 -4.125 3.125 C-3.30589691 0.12162199 -3.19313651 0.07788138 0 0 Z " fill="#161717" transform="translate(116.5625,131.9375)"/>
<path d="M0 0 C0.33 0.99 0.66 1.98 1 3 C1.66 3 2.32 3 3 3 C7.12553274 9.87020535 7.12553274 9.87020535 6.6875 13.8125 C4.23385776 16.99314735 1.80984524 17.88332122 -2 19 C-4.2265625 18.06640625 -4.2265625 18.06640625 -6 17 C-4.33846988 11.14340094 -2.52958084 5.5409866 0 0 Z " fill="#131414" transform="translate(278,140)"/>
<path d="M0 0 C4.43458973 1.3937282 6.87378374 3.60582235 10 7 C10.66 6.67 11.32 6.34 12 6 C12.69685498 7.6210103 13.38222861 9.24696066 14.0625 10.875 C14.44535156 11.77992188 14.82820313 12.68484375 15.22265625 13.6171875 C16 16 16 16 15 18 C14.01 18 13.02 18 12 18 C12 17.34 12 16.68 12 16 C11.34 16 10.68 16 10 16 C9.525625 15.175 9.05125 14.35 8.5625 13.5 C8.046875 12.675 7.53125 11.85 7 11 C6.01 11 5.02 11 4 11 C2.66018514 10.6937566 1.32488113 10.36548445 0 10 C0.226875 9.236875 0.45375 8.47375 0.6875 7.6875 C0.790625 6.800625 0.89375 5.91375 1 5 C-0.33378575 3.1645201 -0.33378575 3.1645201 -2 2 C-1.34 1.34 -0.68 0.68 0 0 Z " fill="#181918" transform="translate(205,202)"/>
<path d="M0 0 C0.66 0.66 1.32 1.32 2 2 C2.66 1.67 3.32 1.34 4 1 C4.66 1.33 5.32 1.66 6 2 C5.01 4.97 4.02 7.94 3 11 C5.3015411 11.77802187 5.3015411 11.77802187 8 12 C10.30504044 10.66846734 10.30504044 10.66846734 12 9 C12.33 10.98 12.66 12.96 13 15 C9.9281888 16.62625299 8.40374931 17.07415804 4.9375 16.4375 C0.96707294 14.49452506 -1.04308837 11.91382326 -3 8 C-2.44140625 6.0546875 -2.44140625 6.0546875 -1.5625 3.875 C-1.27503906 3.15054688 -0.98757813 2.42609375 -0.69140625 1.6796875 C-0.46324219 1.12539062 -0.23507812 0.57109375 0 0 Z " fill="#171817" transform="translate(282,129)"/>
<path d="M0 0 C3 0 3 0 5.5625 2.375 C6.366875 3.24125 7.17125 4.1075 8 5 C8.66 5.66 9.32 6.32 10 7 C10.99 6.67 11.98 6.34 13 6 C13.69699552 7.45381897 14.38233866 8.91322953 15.0625 10.375 C15.44535156 11.18710938 15.82820312 11.99921875 16.22265625 12.8359375 C16.60744141 13.90714844 16.60744141 13.90714844 17 15 C16.67 15.66 16.34 16.32 16 17 C13.625 16.6875 13.625 16.6875 11 16 C10.34 15.01 9.68 14.02 9 13 C7.86304725 11.94617352 6.69381672 10.92644563 5.5 9.9375 C3.58008878 8.33892985 1.76869276 6.76869276 0 5 C-0.125 2.375 -0.125 2.375 0 0 Z " fill="#1E1F1E" transform="translate(157,79)"/>
<path d="M0 0 C0.33 0 0.66 0 1 0 C1.90836667 8.99063487 2.18292153 17.90418213 2.1875 26.9375 C2.19974609 28.20529297 2.21199219 29.47308594 2.22460938 30.77929688 C2.23730595 39.03630287 1.51148482 46.88251298 0 55 C-0.33 55 -0.66 55 -1 55 C-1.18981352 36.65135984 -0.60375728 18.33591583 0 0 Z " fill="#BABABA" transform="translate(331,147)"/>
<path d="M0 0 C0 0.66 0 1.32 0 2 C6.27 2.33 12.54 2.66 19 3 C19 3.33 19 3.66 19 4 C-1.79 4 -22.58 4 -44 4 C-44 3.67 -44 3.34 -44 3 C-42.90010742 2.98018066 -41.80021484 2.96036133 -40.66699219 2.93994141 C-36.58163778 2.86380099 -32.49663562 2.77509664 -28.41162109 2.68261719 C-26.6444393 2.64436229 -24.87718056 2.6095033 -23.10986328 2.578125 C-20.56775437 2.53239848 -18.02617352 2.47441711 -15.484375 2.4140625 C-14.69569031 2.40251129 -13.90700562 2.39096008 -13.09442139 2.37905884 C-8.29218439 2.25019539 -4.51143167 0 0 0 Z " fill="#1D1E1D" transform="translate(112,154)"/>
<path d="M0 0 C0.66 0.33 1.32 0.66 2 1 C0.88200014 2.33920838 -0.24461897 3.67122556 -1.375 5 C-2.31472656 6.11375 -2.31472656 6.11375 -3.2734375 7.25 C-3.84320313 7.8275 -4.41296875 8.405 -5 9 C-5.66 9 -6.32 9 -7 9 C-7 9.66 -7 10.32 -7 11 C-10.38421663 14.68282398 -14.0250345 17.97556973 -18 21 C-18.99 21 -19.98 21 -21 21 C-21 20.34 -21 19.68 -21 19 C-19.55948671 17.76048856 -18.11252255 16.52742525 -16.62890625 15.33984375 C-14.83898958 13.91167217 -14.83898958 13.91167217 -12.75 11.75 C-8.65877591 7.65877591 -4.31836659 3.84879663 0 0 Z " fill="#CFCFCF" transform="translate(69,40)"/>
<path d="M0 0 C0 0.66 0 1.32 0 2 C-1.66279327 3.0064275 -3.32983484 4.00585407 -5 5 C-5.99 6.485 -5.99 6.485 -7 8 C-8.32488113 8.36548445 -9.66018514 8.6937566 -11 9 C-11.825 9.515625 -12.65 10.03125 -13.5 10.5625 C-16 12 -16 12 -20 12 C-20.185625 12.61875 -20.37125 13.2375 -20.5625 13.875 C-22.71437233 17.05602866 -25.37533763 17.19451947 -29 18 C-25.25140005 13.92824488 -21.40747557 11.18886396 -16.625 8.4375 C-15.99078125 8.06431641 -15.3565625 7.69113281 -14.703125 7.30664062 C-13.43691797 6.56371303 -12.16773783 5.82582738 -10.89550781 5.09326172 C-9.60351434 4.34808568 -8.31656348 3.59411408 -7.03417969 2.83251953 C-2.22151342 0 -2.22151342 0 0 0 Z " fill="#C0C1C0" transform="translate(100,22)"/>
<path d="M0 0 C0.495 1.98 0.495 1.98 1 4 C0.46503906 3.83757813 -0.06992188 3.67515625 -0.62109375 3.5078125 C-11.71284937 1.14011426 -24.74018962 3.32777251 -36 4 C-26.66899963 -2.22066692 -10.81024931 -0.22289174 0 0 Z " fill="#ADADAD" transform="translate(171,7)"/>
<path d="M0 0 C4.99917815 7.49876722 11.1997968 24.4011176 9.5703125 33.36328125 C9.38210938 33.90339844 9.19390625 34.44351563 9 35 C6.36619645 31.04929467 6.19983282 27.45592487 5.5625 22.8125 C5.14731391 19.80849191 5.14731391 19.80849191 3 17 C2.65625 14.9921875 2.65625 14.9921875 2.5 12.875 C2.335 11.59625 2.17 10.3175 2 9 C1.34 8.67 0.68 8.34 0 8 C0 5.36 0 2.72 0 0 Z " fill="#C2C2C2" transform="translate(321,111)"/>
<path d="M0 0 C0.99 0 1.98 0 3 0 C3 1.65 3 3.3 3 5 C4.8871875 5.0309375 4.8871875 5.0309375 6.8125 5.0625 C7.52019531 5.07410156 8.22789062 5.08570313 8.95703125 5.09765625 C11.20305461 5.08263217 11.20305461 5.08263217 14 4 C13.67 5.32 13.34 6.64 13 8 C14.65 8.66 16.3 9.32 18 10 C14.74004193 11.08557892 12.89457573 10.91310151 9.671875 9.78515625 C8.87265625 9.51123047 8.0734375 9.23730469 7.25 8.95507812 C6.425 8.66052734 5.6 8.36597656 4.75 8.0625 C3.90953125 7.77181641 3.0690625 7.48113281 2.203125 7.18164062 C0.13194269 6.46378767 -1.93533262 5.73633881 -4 5 C-2.68 4.67 -1.36 4.34 0 4 C0 2.68 0 1.36 0 0 Z " fill="#393A3A" transform="translate(120,298)"/>
<path d="M0 0 C1.13508688 3.3515741 0.87309359 5.35675676 -0.25 8.6875 C-0.50265625 9.47511719 -0.7553125 10.26273438 -1.015625 11.07421875 C-2 13 -2 13 -5 14 C-4.95875 14.78375 -4.9175 15.5675 -4.875 16.375 C-5 19 -5 19 -7 21 C-7.70710678 22.64991582 -8.37943989 24.31562256 -9 26 C-9.66 26 -10.32 26 -11 26 C-8.15986311 16.89865223 -4.31955651 8.48484314 0 0 Z " fill="#BFBFBF" transform="translate(25,91)"/>
<path d="M0 0 C1.485 0.99 1.485 0.99 3 2 C3.1875 5.625 3.1875 5.625 3 9 C3.66 9 4.32 9 5 9 C5.67184618 11.10251861 6.33730968 13.20707763 7 15.3125 C7.556875 17.07013672 7.556875 17.07013672 8.125 18.86328125 C9 22 9 22 9 25 C9.66 25 10.32 25 11 25 C10.67 25.99 10.34 26.98 10 28 C10 27.34 10 26.68 10 26 C9.34 26 8.68 26 8 26 C0 5.82608696 0 5.82608696 0 0 Z " fill="#B2B3B2" transform="translate(11,216)"/>
<path d="M0 0 C7.12570158 3.92731778 13.10767202 8.39232555 19 14 C18.01 14.33 17.02 14.66 16 15 C14.948125 13.8553125 14.948125 13.8553125 13.875 12.6875 C11.1442636 9.87978033 11.1442636 9.87978033 7.75 8.375 C5 7 5 7 4 4 C3.01 4 2.02 4 1 4 C0.67 2.68 0.34 1.36 0 0 Z " fill="#BABABA" transform="translate(259,34)"/>
<path d="M0 0 C0.66 0 1.32 0 2 0 C3.13764351 4.26616316 4 7.56486311 4 12 C0.62496331 10.8141763 -1.64722731 9.72426311 -4 7 C-2.68 4.69 -1.36 2.38 0 0 Z " fill="#252625" transform="translate(156,92)"/>
<path d="M0 0 C10.27898247 0.31676371 19.18647533 2.04494705 29 5 C25.90341928 6.03219357 24.31639433 6.01245961 21.125 5.6875 C20.28195313 5.60886719 19.43890625 5.53023437 18.5703125 5.44921875 C16 5 16 5 13.54296875 3.96484375 C10.59195305 2.84518034 8.33096173 2.79925393 5.1875 2.875 C4.21167969 2.89304687 3.23585937 2.91109375 2.23046875 2.9296875 C1.49441406 2.95289063 0.75835937 2.97609375 0 3 C0 2.01 0 1.02 0 0 Z " fill="#BEBEBE" transform="translate(186,8)"/>
<path d="M0 0 C1.32 0 2.64 0 4 0 C4 0.66 4 1.32 4 2 C4.66 2 5.32 2 6 2 C5.67 3.65 5.34 5.3 5 7 C3.68 7.33 2.36 7.66 1 8 C0.01 6.68 -0.98 5.36 -2 4 C-1.34 2.68 -0.68 1.36 0 0 Z " fill="#0C0D0C" transform="translate(105,147)"/>
<path d="M0 0 C2.28448668 6.26008689 -1.76512165 13.31396518 -4.3828125 19.0078125 C-5.55486185 21.35860862 -6.752266 23.6886239 -8 26 C-9.04449911 22.86650268 -8.93423645 22.01031744 -8 19 C-7.34 19 -6.68 19 -6 19 C-5.87625 18.113125 -5.7525 17.22625 -5.625 16.3125 C-5 13 -5 13 -4 10.5625 C-2.83136584 7.86704146 -2.83136584 7.86704146 -2.5 4.25 C-2.335 3.1775 -2.17 2.105 -2 1 C-1.34 0.67 -0.68 0.34 0 0 Z " fill="#BEBEBE" transform="translate(326,216)"/>
<path d="M0 0 C2.86697492 1.28519565 4.97607712 2.57129254 7 5 C7 5.66 7 6.32 7 7 C7.86625 7.309375 7.86625 7.309375 8.75 7.625 C11.81410544 9.49750888 13.15539968 11.96958519 15 15 C13.68 15 12.36 15 11 15 C11 13.68 11 12.36 11 11 C9.68 10.67 8.36 10.34 7 10 C6.938125 9.38125 6.87625 8.7625 6.8125 8.125 C6.544375 7.42375 6.27625 6.7225 6 6 C4.7625 5.505 4.7625 5.505 3.5 5 C2.2625 4.505 2.2625 4.505 1 4 C0.1875 1.875 0.1875 1.875 0 0 Z " fill="#B4B4B4" transform="translate(278,49)"/>
<path d="M0 0 C0 0.33 0 0.66 0 1 C-6.27 1 -12.54 1 -19 1 C-19.33 0.34 -19.66 -0.32 -20 -1 C-12.88319978 -2.77920006 -6.83658271 -2.2788609 0 0 Z " fill="#000000" transform="translate(145,3)"/>
<path d="M0 0 C1.65 1.32 3.3 2.64 5 4 C4.6875 5.9375 4.6875 5.9375 4 8 C3.01 8.33 2.02 8.66 1 9 C-0.32 7.68 -1.64 6.36 -3 5 C-1.125 1.125 -1.125 1.125 0 0 Z " fill="#0C0D0D" transform="translate(210,211)"/>
<path d="M0 0 C2 3.75 2 3.75 2 6 C-1.32561865 7.76062164 -2.59173995 8.10784228 -6.3125 7.125 C-7.199375 6.75375 -8.08625 6.3825 -9 6 C-8.34 5.67 -7.68 5.34 -7 5 C-7 4.34 -7 3.68 -7 3 C-6.21625 2.87625 -5.4325 2.7525 -4.625 2.625 C-1.85942178 2.20882007 -1.85942178 2.20882007 0 0 Z " fill="#161716" transform="translate(293,138)"/>
<path d="M0 0 C5.17226615 4.6873662 8.98925493 10.31728181 13 16 C12.67 16.66 12.34 17.32 12 18 C8.98431595 15.14303616 6.75168667 12.75361429 5 9 C4.505 8.54625 4.01 8.0925 3.5 7.625 C1.40980621 5.3606234 0.8445618 2.92348316 0 0 Z " fill="#A8A8A8" transform="translate(296,68)"/>
<path d="M0 0 C1.74216797 0.15275391 1.74216797 0.15275391 3.51953125 0.30859375 C4.39996094 0.39238281 5.28039062 0.47617187 6.1875 0.5625 C5.8575 1.2225 5.5275 1.8825 5.1875 2.5625 C-0.7525 2.5625 -6.6925 2.5625 -12.8125 2.5625 C-12.4825 1.9025 -12.1525 1.2425 -11.8125 0.5625 C-7.79324976 -0.66458371 -4.14784891 -0.37707717 0 0 Z " fill="#000000" transform="translate(206.8125,1.4375)"/>
<path d="M0 0 C0.66 0.33 1.32 0.66 2 1 C2 4.3 2 7.6 2 11 C1.01 11 0.02 11 -1 11 C-3 5.375 -3 5.375 -3 2 C-2.01 1.34 -1.02 0.68 0 0 Z " fill="#161716" transform="translate(66,175)"/>
<path d="M0 0 C0.33 0.99 0.66 1.98 1 3 C0.34 3.66 -0.32 4.32 -1 5 C-1.16681109 8.08347826 -1.16681109 8.08347826 -1 11 C-1.99 10.67 -2.98 10.34 -4 10 C-3.67 8.35 -3.34 6.7 -3 5 C-3.66 5.66 -4.32 6.32 -5 7 C-5.66 7.66 -6.32 8.32 -7 9 C-7.37254569 5.64708882 -7.31050198 4.3961577 -5.1875 1.6875 C-3 0 -3 0 0 0 Z " fill="#141514" transform="translate(126,293)"/>
<path d="M0 0 C0.66 0 1.32 0 2 0 C2 6.6 2 13.2 2 20 C1.34 20 0.68 20 0 20 C0 13.4 0 6.8 0 0 Z " fill="#000000" transform="translate(0,128)"/>
<path d="M0 0 C0.99 0 1.98 0 3 0 C2.54917531 1.46067199 2.08906463 2.91848032 1.625 4.375 C1.36976563 5.18710938 1.11453125 5.99921875 0.8515625 6.8359375 C0 9 0 9 -2 11 C-2.99 8.69 -3.98 6.38 -5 4 C-4.360625 3.71125 -3.72125 3.4225 -3.0625 3.125 C-0.84793921 2.17176549 -0.84793921 2.17176549 0 0 Z " fill="#262726" transform="translate(236,168)"/>
<path d="M0 0 C0.33 0.99 0.66 1.98 1 3 C-0.07421875 5.0078125 -0.07421875 5.0078125 -1.6875 7.125 C-2.20699219 7.82882813 -2.72648437 8.53265625 -3.26171875 9.2578125 C-5.18169057 11.18209887 -6.34723083 11.61855607 -9 12 C-7.55575365 8.76138697 -5.74227753 6.38030837 -3.375 3.75 C-2.74335937 3.04359375 -2.11171875 2.3371875 -1.4609375 1.609375 C-0.97882812 1.07828125 -0.49671875 0.5471875 0 0 Z " fill="#C4C5C4" transform="translate(47,61)"/>
<path d="M0 0 C0.4125 0.45375 0.825 0.9075 1.25 1.375 C3.06408095 3.05950374 4.75285627 3.99265971 7 5 C5.68 6.32 4.36 7.64 3 9 C0.525 8.01 0.525 8.01 -2 7 C-1.34 4.69 -0.68 2.38 0 0 Z " fill="#222323" transform="translate(274,150)"/>
<path d="M0 0 C0.33 0 0.66 0 1 0 C1.05451714 2.04136395 1.09302485 4.08315856 1.125 6.125 C1.14820313 7.26195312 1.17140625 8.39890625 1.1953125 9.5703125 C0.99672109 13.05757767 0.2524801 15.7553862 -1 19 C-1.33 19 -1.66 19 -2 19 C-2.05451714 16.95863605 -2.09302485 14.91684144 -2.125 12.875 C-2.14820313 11.73804688 -2.17140625 10.60109375 -2.1953125 9.4296875 C-1.99672109 5.94242233 -1.2524801 3.2446138 0 0 Z " fill="#C5C5C5" transform="translate(10,129)"/>
<path d="M0 0 C8.57142857 0.85714286 8.57142857 0.85714286 12 3 C8.49223216 4.60355101 5.85645121 5.22036864 2 5 C1.34 3.35 0.68 1.7 0 0 Z " fill="#191A19" transform="translate(123,122)"/>
<path d="M0 0 C0.66 0 1.32 0 2 0 C0.60838228 6.4014415 -2.28499414 11.61703232 -6 17 C-6.33 17 -6.66 17 -7 17 C-7 15.35 -7 13.7 -7 12 C-6.34 12 -5.68 12 -5 12 C-5 11.01 -5 10.02 -5 9 C-4.34 9 -3.68 9 -3 9 C-3 8.01 -3 7.02 -3 6 C-2.34 6 -1.68 6 -1 6 C-0.67 4.02 -0.34 2.04 0 0 Z " fill="#CBCCCB" transform="translate(315,242)"/>
<path d="M0 0 C0.33 0 0.66 0 1 0 C1.05407567 2.58361518 1.093707 5.16609255 1.125 7.75 C1.14175781 8.47960937 1.15851563 9.20921875 1.17578125 9.9609375 C1.21177936 13.92072996 0.93153875 16.5646681 -1 20 C-1.02888514 16.85418577 -1.04675923 13.70840531 -1.0625 10.5625 C-1.07087891 9.66466797 -1.07925781 8.76683594 -1.08789062 7.84179688 C-1.09111328 6.98779297 -1.09433594 6.13378906 -1.09765625 5.25390625 C-1.10551147 4.06776733 -1.10551147 4.06776733 -1.11352539 2.85766602 C-1 1 -1 1 0 0 Z " fill="#000000" transform="translate(1,196)"/>
<path d="M0 0 C11.55 0 23.1 0 35 0 C35 0.33 35 0.66 35 1 C23.45 1 11.9 1 0 1 C0 0.67 0 0.34 0 0 Z " fill="#000000" transform="translate(143,0)"/>
<path d="M0 0 C1.65 0.99 3.3 1.98 5 3 C3.02 3.99 3.02 3.99 1 5 C1 5.66 1 6.32 1 7 C-0.65 7.33 -2.3 7.66 -4 8 C-4 7.01 -4 6.02 -4 5 C-3.01 4.34 -2.02 3.68 -1 3 C-0.67 2.01 -0.34 1.02 0 0 Z " fill="#1D1E1D" transform="translate(136,125)"/>
<path d="M0 0 C0.99 0 1.98 0 3 0 C2.8125 1.8125 2.8125 1.8125 2 4 C-0.63574472 5.87276598 -2.92992508 6.97664169 -6 8 C-6 6.68 -6 5.36 -6 4 C-4.7934375 3.566875 -4.7934375 3.566875 -3.5625 3.125 C-0.8673532 2.26737432 -0.8673532 2.26737432 0 0 Z " fill="#171817" transform="translate(166,97)"/>
<path d="M0 0 C0.33 0 0.66 0 1 0 C1.05394705 2.60444348 1.09364469 5.20776998 1.125 7.8125 C1.14175781 8.55048828 1.15851563 9.28847656 1.17578125 10.04882812 C1.21074628 13.91246426 1.19397555 15.70903668 -1 19 C-1.02705308 16.58325776 -1.04686438 14.1668206 -1.0625 11.75 C-1.07087891 11.06808594 -1.07925781 10.38617188 -1.08789062 9.68359375 C-1.10428392 6.30657446 -1.05628768 3.22708361 0 0 Z " fill="#000000" transform="translate(337,128)"/>
<path d="M0 0 C0.66 0 1.32 0 2 0 C2 4.29 2 8.58 2 13 C1.34 13 0.68 13 0 13 C-0.19551338 11.39679026 -0.38111983 9.79237014 -0.5625 8.1875 C-0.71912109 6.84751953 -0.71912109 6.84751953 -0.87890625 5.48046875 C-1 3 -1 3 0 0 Z " fill="#000000" transform="translate(3,212)"/>
<path d="M0 0 C0.66 0.33 1.32 0.66 2 1 C0.95285076 2.32477959 -0.11344669 3.63443746 -1.1875 4.9375 C-1.77917969 5.66839844 -2.37085937 6.39929687 -2.98046875 7.15234375 C-5.32505203 9.29738803 -6.88391498 9.66094412 -10 10 C-6.92118304 6.12948725 -3.99926986 2.97088618 0 0 Z " fill="#AFAFAF" transform="translate(69,40)"/>
<path d="M0 0 C0.33 0.99 0.66 1.98 1 3 C1.66 3 2.32 3 3 3 C5 6 5 6 4.625 8.1875 C4.41875 8.785625 4.2125 9.38375 4 10 C3.566875 9.505 3.13375 9.01 2.6875 8.5 C1.00259517 6.66781808 1.00259517 6.66781808 -2 7 C-1.34 4.69 -0.68 2.38 0 0 Z " fill="#262727" transform="translate(278,140)"/>
<path d="M0 0 C0.89203125 0.01804687 1.7840625 0.03609375 2.703125 0.0546875 C3.71632812 0.08949219 3.71632812 0.08949219 4.75 0.125 C5.08 1.445 5.41 2.765 5.75 4.125 C-1.675 3.135 -1.675 3.135 -9.25 2.125 C-5.38209997 0.19104999 -4.0999541 -0.10789353 0 0 Z " fill="#CECFCE" transform="translate(166.25,6.875)"/>
<path d="M0 0 C2.16874252 0.50603992 3.99967627 0.99983813 6 2 C5.6875 3.9375 5.6875 3.9375 5 6 C4.01 6.33 3.02 6.66 2 7 C0.5393715 4.35261084 0 3.10551666 0 0 Z " fill="#0F100F" transform="translate(194,222)"/>
<path d="M0 0 C4.30764815 1.56641751 8.06171464 3.68336156 12 6 C12 6.33 12 6.66 12 7 C10.35 7 8.7 7 7 7 C6.67 6.01 6.34 5.02 6 4 C3.03 3.505 3.03 3.505 0 3 C0 2.01 0 1.02 0 0 Z " fill="#C0C0C0" transform="translate(238,22)"/>
<path d="M0 0 C0.33 0.66 0.66 1.32 1 2 C-3.29 2 -7.58 2 -12 2 C-12.33 1.34 -12.66 0.68 -13 0 C-8.38411065 -1.013244 -4.62927172 -0.99847037 0 0 Z " fill="#000000" transform="translate(128,5)"/>
<path d="M0 0 C0.66 0.66 1.32 1.32 2 2 C2.66 1.67 3.32 1.34 4 1 C4.66 1.66 5.32 2.32 6 3 C5.01 3.33 4.02 3.66 3 4 C1.57142881 5.40105576 1.57142881 5.40105576 0.3125 7.0625 C-0.450625 8.031875 -1.21375 9.00125 -2 10 C-3 8 -3 8 -2.44140625 6.0546875 C-2.15136719 5.33539063 -1.86132812 4.61609375 -1.5625 3.875 C-1.27503906 3.15054688 -0.98757813 2.42609375 -0.69140625 1.6796875 C-0.46324219 1.12539062 -0.23507812 0.57109375 0 0 Z " fill="#2E2F2E" transform="translate(282,129)"/>
<path d="M0 0 C1.9375 0.3125 1.9375 0.3125 4 1 C4.33 1.99 4.66 2.98 5 4 C5.66 4.33 6.32 4.66 7 5 C8.1875 6.875 8.1875 6.875 9 9 C8.67 9.99 8.34 10.98 8 12 C6.66382103 10.18959679 5.33112616 8.3766216 4 6.5625 C3.2575 5.55316406 2.515 4.54382813 1.75 3.50390625 C0 1 0 1 0 0 Z " fill="#C0C0C0" transform="translate(32,263)"/>
<path d="M0 0 C0.99 0 1.98 0 3 0 C3.66 2.31 4.32 4.62 5 7 C4.01 7 3.02 7 2 7 C1.67 6.34 1.34 5.68 1 5 C0.34 5 -0.32 5 -1 5 C-0.67 3.35 -0.34 1.7 0 0 Z " fill="#272827" transform="translate(216,213)"/>
<path d="M0 0 C3.09592835 3.5087188 4.74194623 6.49197399 6 11 C5.01 11 4.02 11 3 11 C0 4.5 0 4.5 0 0 Z " fill="#B2B3B2" transform="translate(309,86)"/>
<path d="M0 0 C0.66 0.33 1.32 0.66 2 1 C1.38125 1.2475 0.7625 1.495 0.125 1.75 C-2.15546283 2.80173787 -2.15546283 2.80173787 -2.8125 5 C-4 7 -4 7 -7.625 8.25 C-8.73875 8.4975 -9.8525 8.745 -11 9 C-7.56638098 5.36440339 -4.2026393 2.63886654 0 0 Z " fill="#A7A8A7" transform="translate(82,31)"/>
<path d="M0 0 C1.32 0 2.64 0 4 0 C4.33 0.66 4.66 1.32 5 2 C5.928125 2.2165625 5.928125 2.2165625 6.875 2.4375 C9.39658526 3.10497845 10.3855092 3.9818865 12 6 C12 6.66 12 7.32 12 8 C7.44328408 6.48109469 3.68276708 4.04597738 0 1 C0 0.67 0 0.34 0 0 Z " fill="#B4B4B4" transform="translate(69,303)"/>
<path d="M0 0 C0.33 0.66 0.66 1.32 1 2 C-1.22175915 6.57421001 -4.64419019 10.2315016 -8 14 C-8 9.96618977 -6.40426438 8.50566363 -4 5.3125 C-3.2575 4.31863281 -2.515 3.32476562 -1.75 2.30078125 C-1.1725 1.54152344 -0.595 0.78226563 0 0 Z " fill="#D2D2D2" transform="translate(286,248)"/>
<path d="M0 0 C3.63 0 7.26 0 11 0 C10.67 0.66 10.34 1.32 10 2 C6.7 2 3.4 2 0 2 C0 1.34 0 0.68 0 0 Z " fill="#000000" transform="translate(107,334)"/>
<path d="M0 0 C1.31611677 0.95336021 2.62778961 1.91285774 3.9375 2.875 C4.66839844 3.40867188 5.39929688 3.94234375 6.15234375 4.4921875 C8 6 8 6 9 8 C5.41209425 7.70100785 4.21833224 7.23013399 1.6875 4.5625 C0 2 0 2 0 0 Z " fill="#B3B3B3" transform="translate(269,41)"/>
<path d="M0 0 C0.99 0 1.98 0 3 0 C3 1.65 3 3.3 3 5 C1.1875 5.625 1.1875 5.625 -1 6 C-1.99 5.34 -2.98 4.68 -4 4 C-2.68 4 -1.36 4 0 4 C0 2.68 0 1.36 0 0 Z " fill="#2B2C2B" transform="translate(120,298)"/>
<path d="M0 0 C0.66 1.32 1.32 2.64 2 4 C1.01 4.495 1.01 4.495 0 5 C-1.13350534 7.01669827 -1.13350534 7.01669827 -2 9 C-2.6875 6.1875 -2.6875 6.1875 -3 3 C-1.5625 1.125 -1.5625 1.125 0 0 Z " fill="#242525" transform="translate(298,119)"/>
<path d="M0 0 C3.36720387 1.39332574 4.9859524 2.9789286 7 6 C2.25 5.25 2.25 5.25 0 3 C0 2.01 0 1.02 0 0 Z " fill="#ACACAC" transform="translate(278,49)"/>
<path d="M0 0 C2.97 0 5.94 0 9 0 C9 0.66 9 1.32 9 2 C5.7 2 2.4 2 -1 2 C-0.67 1.34 -0.34 0.68 0 0 Z " fill="#000000" transform="translate(229,11)"/>
<path d="M0 0 C1.485 0.99 1.485 0.99 3 2 C3.29296875 4.1640625 3.29296875 4.1640625 3.1875 6.625 C3.16042969 7.44226563 3.13335937 8.25953125 3.10546875 9.1015625 C3.07066406 9.72804687 3.03585937 10.35453125 3 11 C1.0210244 7.36383344 0.4748935 4.11574371 0 0 Z " fill="#A4A4A4" transform="translate(11,216)"/>
<path d="M0 0 C0.99 0.33 1.98 0.66 3 1 C2.01 1.495 2.01 1.495 1 2 C-0.13350534 4.01669827 -0.13350534 4.01669827 -1 6 C-1.66 5.67 -2.32 5.34 -3 5 C-2.625 3.0625 -2.625 3.0625 -2 1 C-1.34 0.67 -0.68 0.34 0 0 Z " fill="#0F1010" transform="translate(116,135)"/>
<path d="M0 0 C1.65 0 3.3 0 5 0 C5.33 1.65 5.66 3.3 6 5 C3.98079663 3.69593116 1.98075027 2.36176581 0 1 C0 0.67 0 0.34 0 0 Z " fill="#BFBFBF" transform="translate(63,298)"/>
<path d="M0 0 C0.66 0 1.32 0 2 0 C1.50168276 3.68754757 0.89932357 5.60490662 -2 8 C-2 6.35 -2 4.7 -2 3 C-1.34 3 -0.68 3 0 3 C0 2.01 0 1.02 0 0 Z " fill="#D4D4D4" transform="translate(310,251)"/>
<path d="M0 0 C0.66 0 1.32 0 2 0 C2.53012738 1.28788008 3.0488329 2.58046678 3.5625 3.875 C3.99755859 4.95394531 3.99755859 4.95394531 4.44140625 6.0546875 C5 8 5 8 4 10 C3.32845067 8.71086513 2.66291141 7.41859796 2 6.125 C1.62875 5.40570313 1.2575 4.68640625 0.875 3.9453125 C0 2 0 2 0 0 Z " fill="#C2C2C2" transform="translate(22,244)"/>
<path d="M0 0 C0.66 0.66 1.32 1.32 2 2 C1.625 4.625 1.625 4.625 1 7 C0.01 7 -0.98 7 -2 7 C-1.34 4.69 -0.68 2.38 0 0 Z " fill="#363737" transform="translate(271,158)"/>
<path d="M0 0 C0 3.69418201 -1.28179295 5.77836178 -3 9 C-3.66 9 -4.32 9 -5 9 C-3.90931332 5.22454612 -3.0916909 2.52956528 0 0 Z " fill="#BEBFBE" transform="translate(19,108)"/>
<path d="M0 0 C2.99324263 1.0975223 3.84610901 1.67682892 5.25 4.625 C5.4975 5.40875 5.745 6.1925 6 7 C1.2 4.53846154 1.2 4.53846154 0.1875 1.8125 C0.125625 1.214375 0.06375 0.61625 0 0 Z " fill="#B4B5B4" transform="translate(303,79)"/>
<path d="M0 0 C2.31 0 4.62 0 7 0 C7.33 0.66 7.66 1.32 8 2 C5.03 2 2.06 2 -1 2 C-0.67 1.34 -0.34 0.68 0 0 Z " fill="#000000" transform="translate(94,14)"/>
<path d="M0 0 C2.31 0 4.62 0 7 0 C7.33 0.66 7.66 1.32 8 2 C5.03 2 2.06 2 -1 2 C-0.67 1.34 -0.34 0.68 0 0 Z " fill="#000000" transform="translate(101,11)"/>
<path d="M0 0 C0.66 0 1.32 0 2 0 C2 1.98 2 3.96 2 6 C1.01 6.495 1.01 6.495 0 7 C0 4.69 0 2.38 0 0 Z " fill="#000000" transform="translate(12,240)"/>
<path d="M0 0 C1.98 0 3.96 0 6 0 C6 0.66 6 1.32 6 2 C4.02 2 2.04 2 0 2 C0 1.34 0 0.68 0 0 Z " fill="#000000" transform="translate(264,312)"/>
<path d="M0 0 C1.98 0.495 1.98 0.495 4 1 C4 1.66 4 2.32 4 3 C2.35 2.67 0.7 2.34 -1 2 C-0.67 1.34 -0.34 0.68 0 0 Z " fill="#000000" transform="translate(80,23)"/>
<path d="M0 0 C3.96 0 7.92 0 12 0 C12 0.33 12 0.66 12 1 C8.04 1 4.08 1 0 1 C0 0.67 0 0.34 0 0 Z " fill="#000000" transform="translate(183,0)"/>
<path d="M0 0 C1.32 0.33 2.64 0.66 4 1 C4 1.66 4 2.32 4 3 C2.68 3 1.36 3 0 3 C0 2.01 0 1.02 0 0 Z " fill="#000000" transform="translate(273,305)"/>
<path d="M0 0 C0.66 0.66 1.32 1.32 2 2 C1.625 4.125 1.625 4.125 1 6 C0.34 5.67 -0.32 5.34 -1 5 C-0.67 3.35 -0.34 1.7 0 0 Z " fill="#000000" transform="translate(299,59)"/>
<path d="M0 0 C2 2 2 2 2 5 C1.01 5 0.02 5 -1 5 C-0.67 3.35 -0.34 1.7 0 0 Z " fill="#000000" transform="translate(38,59)"/>
<path d="M0 0 C1.32 0 2.64 0 4 0 C4 0.99 4 1.98 4 3 C2.68 2.67 1.36 2.34 0 2 C0 1.34 0 0.68 0 0 Z " fill="#000000" transform="translate(58,39)"/>
<path d="M0 0 C0.99 0.33 1.98 0.66 3 1 C3 1.66 3 2.32 3 3 C1.68 3.33 0.36 3.66 -1 4 C-0.67 2.68 -0.34 1.36 0 0 Z " fill="#000000" transform="translate(265,29)"/>
<path d="M0 0 C0.99 0.99 1.98 1.98 3 3 C2.01 3.33 1.02 3.66 0 4 C-0.66 3.67 -1.32 3.34 -2 3 C-2 2.34 -2 1.68 -2 1 C-1.34 0.67 -0.68 0.34 0 0 Z " fill="#000000" transform="translate(72,29)"/>
<path d="M0 0 C0.66 0.33 1.32 0.66 2 1 C1.67 1.99 1.34 2.98 1 4 C0.01 3.67 -0.98 3.34 -2 3 C-2 2.34 -2 1.68 -2 1 C-1.34 0.67 -0.68 0.34 0 0 Z " fill="#000000" transform="translate(72,311)"/>
<path d="M0 0 C0.99 0.33 1.98 0.66 3 1 C3 1.66 3 2.32 3 3 C1.68 2.67 0.36 2.34 -1 2 C-0.67 1.34 -0.34 0.68 0 0 Z " fill="#000000" transform="translate(277,302)"/>
<path d="M0 0 C0.99 0.33 1.98 0.66 3 1 C2.67 1.66 2.34 2.32 2 3 C1.01 3 0.02 3 -1 3 C-0.67 2.01 -0.34 1.02 0 0 Z " fill="#000000" transform="translate(59,302)"/>
<path d="M0 0 C0.66 0 1.32 0 2 0 C1.67 1.65 1.34 3.3 1 5 C0.34 3.68 -0.32 2.36 -1 1 C-0.67 0.67 -0.34 0.34 0 0 Z " fill="#000000" transform="translate(302,277)"/>
<path d="M0 0 C0.99 0 1.98 0 3 0 C3 0.99 3 1.98 3 3 C2.01 3 1.02 3 0 3 C0 2.01 0 1.02 0 0 Z " fill="#000000" transform="translate(52,45)"/>
<path d="M0 0 C0.99 0 1.98 0 3 0 C3 0.99 3 1.98 3 3 C2.01 3 1.02 3 0 3 C0 2.01 0 1.02 0 0 Z " fill="#000000" transform="translate(280,42)"/>
<path d="M0 0 C1.32 0.33 2.64 0.66 4 1 C3.67 1.66 3.34 2.32 3 3 C2.01 2.67 1.02 2.34 0 2 C0 1.34 0 0.68 0 0 Z " fill="#000000" transform="translate(55,42)"/>
<path d="M0 0 C0.99 0 1.98 0 3 0 C2.67 0.99 2.34 1.98 2 3 C1.01 2.67 0.02 2.34 -1 2 C-0.67 1.34 -0.34 0.68 0 0 Z " fill="#000000" transform="translate(277,39)"/>
<path d="M0 0 C0.99 0.33 1.98 0.66 3 1 C3 1.66 3 2.32 3 3 C2.01 3 1.02 3 0 3 C0 2.01 0 1.02 0 0 Z " fill="#000000" transform="translate(280,299)"/>
<path d="" fill="#000000" transform="translate(0,0)"/>
<path d="" fill="#000000" transform="translate(0,0)"/>
</svg>
